<?xml version="1.0" encoding="UTF-8"?>
<svg id="Icon" xmlns="http://www.w3.org/2000/svg" viewBox="0 0 24 24">
  <path d="m9.4203,4.022l-.4203,1.978c1.1025,0,2,.8975,2,2h2c0-2.0641-1.5706-3.7673-3.5797-3.978Z" fill="#2a2623" stroke-width="0"/>
  <path d="m10,10c.5518,0,1,.4482,1,1h2c0-1.6543-1.3457-3-3-3-3.3086,0-6,2.6914-6,6v1c0,3.8594,3.1406,7,7,7v-2c-2.7568,0-5-2.2432-5-5v-1c0-2.2061,1.7939-4,4-4Z" fill="#2a2623" stroke-width="0"/>
  <path d="m20,16v-2c0-3.3086-2.6914-6-6-6h-1v2h1c2.2061,0,4,1.7939,4,4v2c0,2.2061-1.7939,4-4,4-.5518,0-1-.4482-1-1h-2c0,1.6543,1.3457,3,3,3,3.3086,0,6-2.6914,6-6Z" fill="#2a2623" stroke-width="0"/>
</svg>