<?xml version="1.0" encoding="UTF-8"?>
<svg id="Icon" xmlns="http://www.w3.org/2000/svg" viewBox="0 0 24 24">
  <polygon points="11 23.575 13 24 13 17 11 17 11 23.575" fill="#2a2623" stroke-width="0"/>
  <path d="m17,7c0,1.1025-.8975,2-2,2v2c1.6543,0,3,1.3457,3,3s-1.3457,3-3,3h-1v2h1c2.7568,0,5-2.2432,5-5,0-1.7217-.8749-3.243-2.2034-4.1428.7421-.7265,1.2034-1.7388,1.2034-2.8572,0-2.2061-1.7939-4-4-4v2c1.1025,0,2,.8975,2,2Z" fill="#2a2623" stroke-width="0"/>
  <path d="m9,19h1v-2h-1c-2.2061,0-4-1.7939-4-4s1.7939-4,4-4v-2c-.5518,0-1-.4482-1-1s.4482-1,1-1v-2c-1.6543,0-3,1.3457-3,3,0,.5759.1635,1.1142.4459,1.5715-2.0347.9611-3.4459,3.0328-3.4459,5.4285,0,3.3086,2.6914,6,6,6Z" fill="#2a2623" stroke-width="0"/>
  <path d="m12,2c.5518,0,1,.4482,1,1h2c0-1.6543-1.3457-3-3-3s-3,1.3457-3,3h2c0-.5518.4482-1,1-1Z" fill="#2a2623" stroke-width="0"/>
</svg>