<?xml version="1.0" encoding="UTF-8"?><svg id="Icon" xmlns="http://www.w3.org/2000/svg" viewBox="0 0 24 24"><path d="M6,17.4199c0-.3088.0268-.6125.0768-.9092l1.4151,1.4155c-.2914.0482-.5894.0739-.8923.0739v2c2.2527,0,4.3195-1.0035,5.6995-2.6726,1.2037,1.6204,3.1317,2.6726,5.3005,2.6726h2.4004v-2.4004c0-2.5434-1.4469-4.7554-3.5605-5.8567.3522-.4916.5605-1.0933.5605-1.7429,0-.1275-.0089-.2529-.0244-.3763.384-.2919.968-.2643,1.3174.0833l1.4141-1.4141c-.8931-.8931-2.3094-1.0809-3.4238-.5675.5426-1.1181.3511-2.5052-.5762-3.4325l-1.4141,1.4141c.3589.3589.3869.9258.0845,1.3175-.1237-.0156-.2496-.0245-.3775-.0245-.6497,0-1.2513.2083-1.7429.5605-1.1013-2.1136-3.3133-3.5605-5.8567-3.5605h-2.4004v2.4004c0,2.1745,1.0577,4.1067,2.6854,5.3098-1.6768,1.3793-2.6854,3.4506-2.6854,5.7097v2.5801l2-.425v-2.1551ZM13,10c0-.5518.4482-1,1-1s1,.4482,1,1-.4482,1-1,1h-1v-1ZM13,13h.4004c2.5361,0,4.5996,2.0635,4.5996,4.5996v.4004h-.4004c-2.5361,0-4.5996-2.0635-4.5996-4.5996v-.4004ZM9.5327,17.1389l-2.6636-2.6642c.1517-.2336.3213-.4554.5079-.6631l2.8207,2.8207c-.2084.1862-.4307.3554-.665.5067ZM11.1378,14.7442l-1.882-1.882c.434.0901.8835.1378,1.3438.1378h.4004v.4004c0,.4603.0476.9098.1378,1.3438ZM6,6.4004v-.4004h.4004c2.5361,0,4.5996,2.0635,4.5996,4.5996v.4004h-.4004c-2.5361,0-4.5996-2.0635-4.5996-4.5996Z" style="fill:#2a2623; stroke-width:0px;"/></svg>