<?xml version="1.0" encoding="UTF-8"?>
<svg id="Icon" xmlns="http://www.w3.org/2000/svg" viewBox="0 0 24 24">
  <path d="m6,18c0-1.6543-1.3457-3-3-3v-2c1.6543,0,3-1.3457,3-3h8.575l.425-2H1v12h5v-2Zm-3-8h1c0,.5513-.4482,1-1,1v-1Zm0,8v-1c.5518,0,1,.4482,1,1h-1Z" fill="#2a2623" stroke-width="0"/>
  <path d="m14,14c0-1.6543-1.3457-3-3-3s-3,1.3457-3,3,1.3457,3,3,3,3-1.3457,3-3Zm-4,0c0-.5518.4482-1,1-1s1,.4482,1,1-.4482,1-1,1-1-.4482-1-1Z" fill="#2a2623" stroke-width="0"/>
  <polygon points="22 16.575 24 17 24 5 4.425 5 4 7 22 7 22 16.575" fill="#2a2623" stroke-width="0"/>
  <path d="m7,20h14v-12h-5v2c0,1.6543,1.3457,3,3,3v2c-1.6543,0-3,1.3457-3,3H7.425l-.425,2Zm11-10h1v1c-.5518,0-1-.4487-1-1Zm1,7v1h-1c0-.5518.4482-1,1-1Z" fill="#2a2623" stroke-width="0"/>
</svg>