<?xml version="1.0" encoding="UTF-8"?><svg id="Icon" xmlns="http://www.w3.org/2000/svg" viewBox="0 0 24 24"><path d="M12,0C5.3828,0,0,5.3828,0,12s5.3828,12,12,12,12-5.3828,12-12S18.6172,0,12,0ZM12,2c.3785,0,.7518.0219,1.1195.063-.7225.2566-1.5165.2566-2.239,0,.3677-.0411.741-.063,1.1195-.063ZM6.0067,19.9998c-1.8765-1.4095-3.2427-3.4628-3.7686-5.8289.4571,1.0741,1.5229,1.8291,2.762,1.8291h.4166c.4874,1.1174,1.3741,2.0335,2.506,2.5496-.239.8341-1.007,1.4471-1.9159,1.4502ZM20,17.9931c-.0793.1057-.1611.2095-.2445.3119-.4496-1.5242-1.4888-2.7977-2.8531-3.555.6432-.6792,1.0518-1.5824,1.0938-2.5793,1.166.4117,2.0038,1.5242,2.0038,2.8293v2.9931ZM21.8446,13.7614c-.5526-2.1597-2.5152-3.7614-4.8446-3.7614v2h-1c0,1.1025-.8975,2-2,2v2c2.2043,0,3.9971,1.7912,3.9999,3.9948-1.6725,1.2584-3.7507,2.0052-5.9999,2.0052-1.313,0-2.5675-.2549-3.7173-.717,1.0373-.7233,1.7173-1.925,1.7173-3.283v-.9014l-.751-.1934c-1.3242-.3408-2.249-1.5361-2.249-2.9053h-2c-.5518,0-1-.4482-1-1h2c0-1.1025.8975-2,2-2v-2c-1.4779,0-2.7708.8052-3.4633,2h-2.4869c.1442-1.4454.5975-2.8011,1.2927-4h2.6574c1.1025,0,2,.8975,2,2h2c0-2.2061-1.7939-4-4-4h-1.1337c.9563-.9743,2.1097-1.7542,3.3952-2.2744,1.0354,1.0199,2.3868,1.5302,3.7385,1.5302s2.7031-.5103,3.7385-1.5302c.4267.1727.8392.3734,1.2344.6009-.1564.9478-.9816,1.6735-1.9729,1.6735v2c.7413,0,1.3895.4061,1.7349,1.0071-2.6341.1384-4.7349,2.325-4.7349,4.9929h2c0-1.6543,1.3457-3,3-3v-1h0s1.9778-.4203,1.9778-.4203c-.1074-1.0235-.6022-1.9335-1.3353-2.5797.4448-.3921.8019-.8813,1.038-1.4341,2.0364,1.832,3.3195,4.486,3.3195,7.4341,0,.6008-.0533,1.1894-.1554,1.7614Z" style="fill:#2a2623; stroke-width:0px;"/></svg>