<?xml version="1.0" encoding="UTF-8"?><svg id="Icon" xmlns="http://www.w3.org/2000/svg" viewBox="0 0 24 24"><path d="M19,11c0-3.8599-3.1406-7-7-7s-7,3.1401-7,7c0,2.3733,1.1879,4.4744,3,5.7409v5.2591c.5518,0,1,.4482,1,1v1h6v-1c0-.5518.4482-1,1-1v-5.2591c1.8121-1.2665,3-3.3676,3-5.7409ZM7,11c0-2.7568,2.2432-5,5-5s5,2.2432,5,5-2.2432,5-5,5-5-2.2432-5-5ZM14,20.7662c-.3707.3323-.6583.7553-.828,1.2338h-2.344c-.1697-.4785-.4573-.9014-.828-1.2338v-3.0579c.634.1894,1.3052.2917,2,.2917s1.366-.1023,2-.2917v3.0579ZM4,12H1v-2h3v2ZM13,3h-2V0h2v3ZM23,10v2h-3v-2h3ZM10,11h-2c0-2.2056,1.7939-4,4-4v2c-1.1025,0-2,.897-2,2ZM18.3643,15.9502l2.1211,2.1211-1.4141,1.4141-2.1211-2.1211,1.4141-1.4141ZM5.6357,15.9502l1.4141,1.4141-2.1211,2.1211-1.4141-1.4141,2.1211-2.1211ZM5.6357,6.0503l-2.1211-2.1216,1.4141-1.4141,2.1211,2.1216-1.4141,1.4141ZM18.3643,6.0503l-1.4141-1.4141,2.1211-2.1216,1.4141,1.4141-2.1211,2.1216Z" style="fill:#2a2623;"/></svg>