<?xml version="1.0" encoding="UTF-8"?>
<svg id="Icon" xmlns="http://www.w3.org/2000/svg" viewBox="0 0 24 24">
  <path d="m21,12.7662c.6133.5497,1,1.3473,1,2.2338h2c0-2.7568-2.2432-5-5-5v13.575l2,.425v-11.2338Z" fill="#2a2623" stroke-width="0"/>
  <path d="m3,11.7662v12.2338l2-.425v-14.575c-2.7568,0-5,2.2432-5,5h2c0-.8865.3867-1.6841,1-2.2338Z" fill="#2a2623" stroke-width="0"/>
  <polygon points="11 23.575 11 15 9 15 9 24 11 23.575" fill="#2a2623" stroke-width="0"/>
  <polygon points="6 24 8 23.575 8 16 6 16 6 24" fill="#2a2623" stroke-width="0"/>
  <polygon points="18 16 16 16 16 23.575 18 24 18 16" fill="#2a2623" stroke-width="0"/>
  <path d="m13,23.575l2,.425v-15h-.0035c1.2156-.913,2.0035-2.3663,2.0035-4v-2h-2v2c0,1.3037-.8361,2.4152-2,2.828v15.747Z" fill="#2a2623" stroke-width="0"/>
  <path d="m6,13v1h2v-1c0-1.6543,1.3457-3,3-3v-2c-2.7568,0-5,2.2432-5,5Z" fill="#2a2623" stroke-width="0"/>
  <circle cx="19" cy="7" r="2" fill="#2a2623" stroke-width="0"/>
  <circle cx="12" cy="5" r="2" fill="#2a2623" stroke-width="0"/>
  <circle cx="5" cy="6" r="2" fill="#2a2623" stroke-width="0"/>
</svg>