<?xml version="1.0" encoding="UTF-8"?><svg id="Icon" xmlns="http://www.w3.org/2000/svg" viewBox="0 0 24 24"><path d="M21.2422,4.7578c1.1338,1.1328,1.7578,2.6396,1.7578,4.2422s-.624,3.1094-1.7578,4.2422l-7.1045,7.4482c-.5947.5947-1.3711.8916-2.1436.8916-.7676,0-1.5322-.292-2.1152-.875l-7.1377-7.4814c-1.1172-1.1162-1.7412-2.623-1.7412-4.2256s.624-3.1094,1.7578-4.2422c1.1328-1.1338,2.6396-1.7578,4.2422-1.7578s3.1094.624,4.2422,1.7578c1.1338,1.1328,1.7578,2.6396,1.7578,4.2422s-.624,3.1094-1.7578,4.2422l-1.4141-1.4141c.7559-.7559,1.1719-1.7598,1.1719-2.8281s-.416-2.0723-1.1719-2.8281c-1.5117-1.5117-4.1445-1.5117-5.6562,0-.7559.7559-1.1719,1.7598-1.1719,2.8281s.416,2.0723,1.1719,2.8281l7.1377,7.4814c.3457.3438,1.0186.3604,1.3975-.0166l7.1045-7.4482c.7725-.7725,1.1885-1.7764,1.1885-2.8447s-.416-2.0723-1.1719-2.8281c-1.5117-1.5117-4.1445-1.5117-5.6562,0l-1.4141-1.4141c1.1328-1.1338,2.6396-1.7578,4.2422-1.7578s3.1094.624,4.2422,1.7578Z" style="fill:#2a2623; stroke-width:0px;"/></svg>