<?xml version="1.0" encoding="UTF-8"?><svg id="Icon" xmlns="http://www.w3.org/2000/svg" viewBox="0 0 24 24"><path d="M3,13l-1.9702-.4187c.2043-1.4567,1.458-2.5813,2.9702-2.5813v2c-.5518,0-1,.4482-1,1ZM23.7002,10.2861l-.7139.7139h.0137s-.425,2-.425,2h-.575c-1.5303,0-2.7959,1.1514-2.9775,2.6338,1.999,2.335,1.8945,5.8643-.3154,8.0732l-1.4141-1.4141c.7461-.7461,1.1562-1.7373,1.1562-2.793s-.4102-2.0469-1.1562-2.793l-.293-.293v1.5859c-.5518,0-1,.4482-1,1v4.9999l-1.9999-.425v-4.575c0-1.6543,1.3456-3,2.9999-3,0-2.6228,2.0304-4.7805,4.6018-4.9841l-3.6177-3.6177c-.2036,2.5714-2.3613,4.6018-4.9841,4.6018h-5c-1.6543,0-3,1.3457-3,3v8.9999s-2-.425-2-.425v-8.575c0-2.7568,2.2432-5,5-5h5c1.6543,0,3-1.3457,3-3h-1c0-1.6543-1.3457-3-3-3v-2c.8502,0,1.6514.2136,2.3532.5895.5056-.945,1.5021-1.5895,2.6468-1.5895v1.418c.1202.0527.2381.1099.3532.1716.5056-.945,1.5021-1.5895,2.6468-1.5895v2c-.5518,0-1,.4482-1,1h-.0026c.5476.7277.9011,1.6093.9836,2.567l3.7192,3.7192ZM18,7c0-1.2419-.7584-2.3098-1.8364-2.7651.5281.7925.8364,1.7435.8364,2.7651h1ZM10,15c-2.2061,0-4,1.7939-4,4v4.575s2,.425,2,.425v-4.9999c0-1.1025.8975-2,2-2v1h3v-2h-3v-1Z" style="fill:#2a2623; stroke-width:0px;"/></svg>