<?xml version="1.0" encoding="UTF-8"?><svg id="Icon" xmlns="http://www.w3.org/2000/svg" viewBox="0 0 24 24"><path d="M5,19c-2.2061,0-4-1.7939-4-4h2c0,1.1025.8975,2,2,2v2ZM5,15v-2c-.5518,0-1-.4482-1-1h-2c0,1.6543,1.3457,3,3,3ZM7,12v-2c-.5518,0-1-.4482-1-1h-2c0,1.6543,1.3457,3,3,3ZM9,10v-2c-.5518,0-1-.4482-1-1h-2c0,1.6543,1.3457,3,3,3ZM12,9v-2c-.5518,0-1-.4482-1-1h-2c0,1.6543,1.3457,3,3,3ZM15,9v-2c-.5518,0-1-.4482-1-1h-2c0,1.6543,1.3457,3,3,3ZM17,10c0-.5518.4482-1,1-1v-2c-1.6543,0-3,1.3457-3,3h2ZM17.009,12.0889c-2.8376.4746-5.009,2.9408-5.009,5.9111h-6c0,.9562-.6758,1.756-1.5742,1.952l-.4258,2.048c1.4741,0,2.75-.8102,3.4438-2h8.1084c.6299,1.0706,1.7412,1.825,3.0405,1.9587l.4072-1.9587c-1.1025,0-2-.8975-2-2h-3c0-2.019,1.5078-3.6755,3.4539-3.9448.5623,1.2378,1.614,2.1936,2.907,2.6462l-2.8081,1.4041.8945,1.7891,3.9417-1.9708c.2449-.0658.4802-.171.6716-.3632.585-.585.585-1.5361,0-2.1211-.292-.293-.6763-.4395-1.0605-.4395-1.6543,0-3-1.3457-3-3,0-.5518.4482-1,1-1v-2c-1.6543,0-2.991,1.4346-2.991,3.0889Z" style="fill:#2a2623;"/></svg>