<?xml version="1.0" encoding="UTF-8"?><svg id="Icon" xmlns="http://www.w3.org/2000/svg" viewBox="0 0 24 24"><path d="M9,16c-.5518,0-1-.4482-1-1h-2c0,.1187.0077.2355.0212.3506-.5831.7115-.9001,1.595-.9001,2.5283,0,.762.2119,1.4913.6075,2.1211h-.7286l.425,2h2.575v-2h-1l.707-.707c-.3779-.3779-.5859-.8799-.5859-1.4141,0-.169.0209-.3347.0613-.4943.5048.3857,1.1347.6154,1.8176.6154,1.6543,0,3-1.3457,3-3h-2c0,.5518-.4482,1-1,1Z" style="fill:#2a2623; stroke-width:0px;"/><path d="M4.1211,20l.4648-.4648c-.3779-.3779-.5859-.8799-.5859-1.4141s.208-1.0361.5859-1.4141l-1.4141-1.4141c-.7559.7559-1.1719,1.7598-1.1719,2.8281,0,.6666.1617,1.3076.4666,1.8789h-.4666l.425,2h2.575v-2h-.8789Z" style="fill:#2a2623; stroke-width:0px;"/><path d="M21,11c-.5518,0-1-.4482-1-1h-2c0,1.2639.7858,2.3468,1.8943,2.788-.3469,1.2731-1.5126,2.212-2.8943,2.212v.3771c-.5696.7069-.8789,1.58-.8789,2.5018,0,.762.2119,1.4913.6075,2.1211h-.7286l.425,2h2.575v-2h-1l.707-.707c-.3779-.3779-.5859-.8799-.5859-1.4141,0-.3939.1135-.7702.3245-1.0923,1.7894-.5415,3.1581-2.061,3.4814-3.9338,1.2019-.3914,2.0731-1.5219,2.0731-2.8528h-2c0,.5518-.4482,1-1,1Z" style="fill:#2a2623; stroke-width:0px;"/><path d="M15.1211,20l.4648-.4648c-.3779-.3779-.5859-.8799-.5859-1.4141s.208-1.0361.5859-1.4141l-1.4141-1.4141c-.7559.7559-1.1719,1.7598-1.1719,2.8281,0,.6666.1617,1.3076.4666,1.8789h-.4666l.425,2h2.575v-2h-.8789Z" style="fill:#2a2623; stroke-width:0px;"/><path d="M22.1544,6.7677c1.0826-.4532,1.8456-1.5225,1.8456-2.7677h-2c0,.5518-.4482,1-1,1h-2c-.5518,0-1-.4482-1-1l-1.9707.4188c.0846.6027.349,1.1484.7369,1.5812h-8.7662v-1h-3C2.2432,5,0,7.2432,0,10v4.575l2,.425v-5c0-1.6543,1.3457-3,3-3h3v1h9v-1.7662c.5312.4761,1.2322.7662,2,.7662h1.142c.4471,1.7205,1.9993,3,3.858,3v-2c-.8306,0-1.5438-.5098-1.8456-1.2323Z" style="fill:#2a2623; stroke-width:0px;"/></svg>