<?xml version="1.0" encoding="UTF-8"?>
<svg id="Icon" xmlns="http://www.w3.org/2000/svg" viewBox="0 0 24 24">
  <path d="m12,6c.5518,0,1,.4482,1,1h2c0-1.6543-1.3457-3-3-3s-3,1.3457-3,3,1.3457,3,3,3c.5518,0,1,.4482,1,1l1.9702-.4186c-.2043-1.4567-1.458-2.5814-2.9702-2.5814-.5518,0-1-.4482-1-1s.4482-1,1-1Z" fill="#2a2623" stroke-width="0"/>
  <path d="m12,15c-.5518,0-1-.4482-1-1h-2c0,1.6543,1.3457,3,3,3s3-1.3457,3-3-1.3457-3-3-3c-.5518,0-1-.4482-1-1l-1.9702.4186c.2043,1.4567,1.458,2.5814,2.9702,2.5814.5518,0,1,.4482,1,1s-.4482,1-1,1Z" fill="#2a2623" stroke-width="0"/>
  <path d="m6,20h15V1H6c-1.6543,0-3,1.3457-3,3v13l2-.425V4c0-.5518.4482-1,1-1h13v15H6c-1.6543,0-3,1.3457-3,3s1.3457,3,3,3h15l-.425-2H6c-.5518,0-1-.4482-1-1s.4482-1,1-1Z" fill="#2a2623" stroke-width="0"/>
</svg>