<?xml version="1.0" encoding="UTF-8"?><svg id="Icon" xmlns="http://www.w3.org/2000/svg" viewBox="0 0 24 24"><path d="M13,6l-2-.425V0l2,.425v5.575ZM11,23.575l2,.425v-5.575l-2-.425v5.575ZM1.1074,6.8662l4.8284,2.7874,1.3679-1.5198-4.8279-2.7873-1.368,1.5195M22.8926,17.1338l-4.8284-2.7873-1.3674,1.5188-.0005.0009,4.828,2.7874,1.368-1.5196M10,8.5361c.9248-.5332,2.0029-.6768,3.0352-.3994,1.0322.2764,1.8945.9385,2.4287,1.8633s.6768,2.0029.3994,3.0352c-.2764,1.0322-.9385,1.8945-1.8633,2.4287-.6162.3555-1.2998.5381-1.9932.5381-.3477,0-.6973-.0459-1.042-.1387-1.0322-.2764-1.8945-.9385-2.4287-1.8633s-.6768-2.0029-.3994-3.0352c.2764-1.0322.9375-1.8945,1.8633-2.4287ZM10.0684,11.4824c-.1387.5166-.0674,1.0547.2002,1.5176.2666.4629.6982.7939,1.2139.9316.5195.1377,1.0557.0674,1.5176-.2002.4629-.2666.7939-.6982.9316-1.2139.1387-.5166.0674-1.0547-.2002-1.5176-.2666-.4629-.6982-.7939-1.2139-.9316-.1729-.0459-.3477-.0693-.5205-.0693-.3467,0-.6885.0908-.9971.2695-.4629.2666-.7939.6982-.9316,1.2139ZM2.1074,18.8662l4.8284-2.7877-.632-1.9445v-.0002s-4.8281,2.7877-4.8281,2.7877l.632,1.9445M21.8926,5.1338l-4.8284,2.7877.632,1.9445v.0002s4.8281-2.7877,4.8281-2.7877l-.632-1.9445" style="fill:#2a2623; stroke-width:0px;"/></svg>