<?xml version="1.0" encoding="UTF-8"?><svg id="Icon" xmlns="http://www.w3.org/2000/svg" viewBox="0 0 24 24"><path d="M21.9541,14.7109c-1.5381,1.5234-3.5586,2.2852-5.5791,2.2852s-4.041-.7617-5.5791-2.2852c-2.2988-2.2793-6.043-2.2793-8.3418,0l-1.4082-1.4219c2.3605-2.3373,5.8572-2.8808,8.7464-1.631l2.4869-2.4867h-.0009c-1.5117-1.5107-4.1445-1.5107-5.6562,0l-1.4141-1.4141c1.1328-1.1333,2.6396-1.7573,4.2422-1.7573s3.1094.624,4.2422,1.7573v.001s.001-.001.001-.001l1.4141,1.4141-3.5471,3.5467c.2224.1768.4376.3668.6437.571,2.2988,2.2793,6.043,2.2793,8.3418,0l1.4082,1.4219ZM12.2041,17.2891c-3.0762-3.0469-8.082-3.0469-11.1582,0l1.4082,1.4219c2.2988-2.2793,6.043-2.2793,8.3418,0,1.5381,1.5234,3.5586,2.2852,5.5791,2.2852s4.041-.7617,5.5791-2.2852l-1.4082-1.4219c-2.2988,2.2793-6.043,2.2793-8.3418,0ZM18.4142,8.4142c.7811-.7811.7811-2.0474,0-2.8284-.781-.7811-2.0473-.7811-2.8284,0s-.781,2.0474,0,2.8284c.7811.781,2.0474.781,2.8284,0Z" style="fill:#2a2623;"/></svg>