<?xml version="1.0" encoding="UTF-8"?><svg id="Icon" xmlns="http://www.w3.org/2000/svg" viewBox="0 0 24 24"><path d="M11.9949,11.6909l-.5027,2.3638-1.957-.416,1.0384-4.8828c-1.0294-.157-2.0696.0642-2.9525.6372-.9521.6182-1.6064,1.5703-1.8418,2.6807l-1.957-.416c.3477-1.6328,1.3096-3.0327,2.71-3.9419,1.3293-.8641,2.9046-1.1845,4.4578-.9182l.0012-.0057,1.957.416c-.2363,1.1104-.0264,2.2461.5918,3.1982s1.5703,1.6064,2.6807,1.8423l-.416,1.9565c-1.5556-.3312-2.8999-1.2202-3.8098-2.5142ZM13,6.5c1.1046,0,2-.8954,2-2s-.8954-2-2-2-2,.8954-2,2,.8954,2,2,2ZM9.1191,15.5957c-.4836,2.2791-2.42,3.8961-4.735,3.9597l-.4242,1.9963c.0941.004.1882.006.2823.006,3.2949,0,6.1416-2.29,6.834-5.5459l-1.957-.416ZM17.9932,21.4805c.1494-3.4248-2.1807-6.4287-5.5391-7.1426l-.416,1.957c2.3994.5098,4.0635,2.6543,3.9561,5.1426v.0625h1.9991v-.0195Z" style="fill:#2a2623;"/></svg>