<?xml version="1.0" encoding="UTF-8"?>
<svg id="Icon" xmlns="http://www.w3.org/2000/svg" viewBox="0 0 24 24">
  <path d="m18,10c-2.0383,0-3.7248-1.5317-3.9694-3.5047.9598.8485,2.1923,1.3953,3.5475,1.49l.4219-1.9853c-2.2061,0-4-1.7939-4-4h-4c0,2.0608-1.5656,3.7617-3.5701,3.9769l-.4299,2.0231c1.5208,0,2.9108-.5689,3.9694-1.5047-.2271,1.8324-1.6981,3.2839-3.5394,3.4815l-.4299,2.0232c1.5208,0,2.9108-.5689,3.9694-1.5047-.2271,1.8324-1.6981,3.2839-3.5394,3.4815l-.4299,2.0232c2.0848,0,3.9243-1.0688,5-2.6871v8.2621l2,.425v-8.6871c1.0026,1.5082,2.6686,2.5387,4.5782,2.672l.4218-1.9849c-2.0383,0-3.7248-1.5317-3.9694-3.5047.9598.8485,2.1923,1.3953,3.5475,1.49l.4219-1.9853Zm-7.5319,0c.9209-1.0275,1.4935-2.3732,1.5299-3.85h.0039c.0364,1.4767.609,2.8224,1.5299,3.85h-3.0637Zm0-4c.9209-1.0275,1.4935-2.3732,1.5299-3.85h.0039c.0364,1.4767.609,2.8224,1.5299,3.85h-3.0637Z" fill="#2a2623" stroke-width="0"/>
</svg>