<?xml version="1.0" encoding="UTF-8"?>
<svg id="Icon" xmlns="http://www.w3.org/2000/svg" viewBox="0 0 24 24">
  <path d="m13.4141,7.8789l1.4142,1.4139-.7072.7072-4.9492-4.9492-4.2432,4.2422,4.9499,4.9499-.7068.7072-1.4139-1.4139-5.6572,5.6562,3.5352,3.5352,5.6572-5.6562-.7072-.7072.7068-.7072.7073.7073,4.2422-4.2432-.707-.707.7074-.7074.7076.7074,5.6562-5.6562-3.5352-3.5361-5.6572,5.6572Zm-7.7783,12.0205l-.707-.707,2.8291-2.8281.707.707-2.8291,2.8281Zm6.3643-6.3633l-4.2432-4.2432,1.415-1.4141,4.2422,4.2422-1.4141,1.415Zm4.9502-4.9502l-.708-.707,2.8291-2.8291.707.708-2.8281,2.8281Z" fill="#2a2623" stroke-width="0"/>
  <rect x="2.6359" y="4.7574" width="6.0007" height="1.9998" transform="translate(-2.4202 5.6717) rotate(-45)" fill="#2a2623" stroke-width="0"/>
  <path d="m16,14c0,1.1025-.8975,2-2,2v2c2.2061,0,4-1.7939,4-4h-2Z" fill="#2a2623" stroke-width="0"/>
  <path d="m14,19v2c3.8594,0,7-3.1406,7-7h-2c0,2.7568-2.2432,5-5,5Z" fill="#2a2623" stroke-width="0"/>
</svg>