<?xml version="1.0" encoding="UTF-8"?><svg id="Icon" xmlns="http://www.w3.org/2000/svg" viewBox="0 0 40 24"><path d="M27,22h13v2H0v-2h13v-12l1.9999.425v11.575h2.0001v-12h0l1.9999.425v11.575h2v-12l1.9999.425v11.575h2.0001v-12h0l1.9999.425v11.575ZM29,5.4336v3.5664H11v-3.5664L20,.0342l9,5.3994ZM27,6.5664l-7-4.2002-7,4.2002v.4336h14v-.4336ZM29,11h8v10h2v-10h1v-2h-11v2ZM0,11h1v10h2v-10h8v-2H0v2ZM29,20.575l1.9999.425h0v-3.575l-1.9999-.425h0v3.575ZM31,16v-3.575l-1.9999-.425h0v3.575l1.9999.425h0ZM35,16v-3.575l-1.9999-.425h0v3.575l1.9999.425h0ZM33,20.575l1.9999.425h0v-3.575l-1.9999-.425h0v3.575ZM5,20.575l1.9999.425h0v-3.575l-1.9999-.425h0v3.575ZM7,16v-3.575l-1.9999-.425h0v3.575l1.9999.425h0ZM11,16v-3.575l-1.9999-.425h0v3.575l1.9999.425h0ZM9,20.575l1.9999.425h0v-3.575l-1.9999-.425h0v3.575ZM18,6h4v-2h-4v2Z" style="fill:#2a2623; stroke-width:0px;"/></svg>