<?xml version="1.0" encoding="UTF-8"?>
<svg id="Icon" xmlns="http://www.w3.org/2000/svg" viewBox="0 0 24 24">
  <path d="m24,14h-2c0,1.6543-1.3457,3-3,3s-3-1.3457-3-3h-2c0,2.7568,2.2432,5,5,5s5-2.2432,5-5Z" fill="#2a2623" stroke-width="0"/>
  <path d="m13,21V5.1387c.596.1655,1.1585.4818,1.626.9492,1.1143,1.1143,2.5771,1.6709,4.041,1.6709,1.4629,0,2.9258-.5566,4.04-1.6709l-1.4141-1.4141c-1.4482,1.4473-3.8027,1.4482-5.2529,0-2.2285-2.2285-5.853-2.2266-8.0806,0-1.4487,1.4463-3.8047,1.4463-5.2524,0l-1.4141,1.4141c2.2266,2.2285,5.8521,2.2285,8.0806,0,.4677-.4675,1.0303-.7838,1.6265-.9492v15.8613h2Z" fill="#2a2623" stroke-width="0"/>
  <path d="m5,19c2.7568,0,5-2.2432,5-5h-2c0,1.6543-1.3457,3-3,3s-3-1.3457-3-3H0c0,2.7568,2.2432,5,5,5Z" fill="#2a2623" stroke-width="0"/>
  <polygon points="6 24 17.575 24 18 22 6.425 22 6 24" fill="#2a2623" stroke-width="0"/>
  <rect x="16" y="12" width="6" height="2" fill="#2a2623" stroke-width="0"/>
  <rect x="2" y="12" width="6" height="2" fill="#2a2623" stroke-width="0"/>
</svg>