<?xml version="1.0" encoding="UTF-8"?><svg id="Icon" xmlns="http://www.w3.org/2000/svg" viewBox="0 0 25 24"><path d="M4,14c-2.2061,0-4,1.7939-4,4s1.7939,4,4,4,4-1.7939,4-4-1.7939-4-4-4ZM4,20c-1.1025,0-2-.8975-2-2s.8975-2,2-2,2,.8975,2,2-.8975,2-2,2ZM19,14c-1.8609,0-3.4285,1.2764-3.8735,3h-5.7015l-.425,2h6.1265c.445,1.7236,2.0126,3,3.8735,3,2.2061,0,4-1.7939,4-4s-1.7939-4-4-4ZM19,20c-1.1025,0-2-.8975-2-2s.8975-2,2-2,2,.8975,2,2-.8975,2-2,2ZM1,10l.4317-2.0315c1.4504-.21,2.5683-1.4608,2.5683-2.9685h9c2.7568,0,5,2.2432,5,5h-2c0-1.6543-1.3457-3-3-3h-7.418c-.7731,1.7642-2.5359,3-4.582,3ZM25,16v3h-2v-3c0-1.71-1.29-3-3-3H0l.425-2h19.575c2.8037,0,5,2.1963,5,5Z" style="fill:#2a2623; stroke-width:0px;"/></svg>