<?xml version="1.0" encoding="UTF-8"?><svg id="Icon" xmlns="http://www.w3.org/2000/svg" viewBox="0 0 49 24"><path d="M45.425,22h3.575l-.425,2h-3.575l.425-2ZM27,24h3.575l.425-2h-3.575l-.425,2ZM37,22h-3.575l-.425,2h3.575l.425-2ZM39,24h3.575l.425-2h-3.575l-.425,2ZM21,24h3.575l.425-2h-3.575l-.425,2ZM3,24h3.575l.425-2h-3.575l-.425,2ZM13,22h-3.575l-.425,2h3.575l.425-2ZM18.575,24l.425-2h-3.575l-.425,2h3.575ZM3,12l.425,2h11.575l-.425-2H3ZM1,6l.425,2h11.575l-.425-2H1ZM33.5859,4l8,8h-13.5859c-2.6076,0-4.8315-1.6719-5.6569-4h10.6569l-.425-2h-12.575c0,4.4111,3.5889,8,8,8h15c1.6543,0,3,1.3457,3,3s-1.3457,3-3,3l.4212,1.9821c2.5605-.2147,4.5788-2.3671,4.5788-4.9821,0-2.1534-1.3687-3.9934-3.2817-4.6957l-10.3043-10.3043H0l.425,2h33.1609Z" style="fill:#2a2623; stroke-width:0px;"/></svg>