<?xml version="1.0" encoding="UTF-8"?>
<svg id="Icon" xmlns="http://www.w3.org/2000/svg" viewBox="0 0 24 24">
  <polygon points="19 21 18.575 19 5 19 5.425 21 19 21" fill="#2a2623" stroke-width="0"/>
  <path d="m7,13v5h2v-5c0-1.6543,1.3457-3,3-3s3,1.3457,3,3v5h2v-5c0-2.7568-2.2432-5-5-5s-5,2.2432-5,5Z" fill="#2a2623" stroke-width="0"/>
  <polygon points="12 18 12 13.425 10 13 10 18 12 18" fill="#2a2623" stroke-width="0"/>
  <polygon points="2.425 14 5.5 14 5.075 12 2 12 2.425 14" fill="#2a2623" stroke-width="0"/>
  <polygon points="6.7928 9.2066 7.9062 7.4922 5.707 5.293 5.7069 5.2931 4.5935 7.0074 6.7928 9.2066" fill="#2a2623" stroke-width="0"/>
  <polygon points="13 3 11 3.425 11 6.5 13 6.075 13 3" fill="#2a2623" stroke-width="0"/>
  <polygon points="17.5076 8.9064 19.7069 6.7072 17.9924 5.5936 15.7931 7.7928 17.5076 8.9064" fill="#2a2623" stroke-width="0"/>
  <polygon points="21.575 12 18.5 12 18.925 14 22 14 21.575 12" fill="#2a2623" stroke-width="0"/>
</svg>