<?xml version="1.0" encoding="UTF-8"?><svg id="Icon" xmlns="http://www.w3.org/2000/svg" viewBox="0 0 24 24"><path d="M11,21h-2c0-2.7568-2.2432-5-5-5l.4222-1.9869c3.6636.2192,6.5778,3.2693,6.5778,6.9869ZM17,6l-.4203-1.978c-2.0091.2106-3.5797,1.9139-3.5797,3.978h2c0-1.1025.8975-2,2-2ZM9,8h2c0-2.0641-1.5706-3.7673-3.5797-3.978l-.4203,1.978c1.1025,0,2,.8975,2,2ZM13,21h2c0-2.7568,2.2432-5,5-5l-.4222-1.9869c-3.6636.2192-6.5778,3.2693-6.5778,6.9869ZM11,14.425v6.575h2v-7l-2,.425ZM12,11c-1.6543,0-3-1.3457-3-3h-2c0,2.7568,2.2432,5,5,5s5-2.2432,5-5h-2c0,1.6543-1.3457,3-3,3ZM13,4h-2v4h2v-4Z" style="fill:#2a2623; stroke-width:0px;"/></svg>