<?xml version="1.0" encoding="UTF-8"?>
<svg id="Icon" xmlns="http://www.w3.org/2000/svg" viewBox="0 0 24 24">
  <path d="m23,11c0,2.9452-1.4218,5.5643-3.6151,7.2072l-1.4329-1.4329c1.8392-1.2627,3.048-3.3801,3.048-5.7742,0-2.2061-1.7939-4-4-4s-4,1.7939-4,4c0,.4932.1807.9668.5088,1.333l3.948,3.9465-1.4122,1.4155-3.988-3.988c-.0187-.0208-.037-.0418-.0552-.0629-.0067.0076-.0132.0153-.02.0228l-4.0293,4.0312c.6472.1981,1.3367.3018,2.0479.3018h4c.7111,0,1.3975-.1069,2.0446-.305l1.5536,1.5536c-1.1026.4828-2.3195.7514-3.5982.7514h-4c-1.2787,0-2.4956-.2686-3.5982-.7514l1.5504-1.5504-1.4141-1.4141,3.9912-3.9912c.29-.3262.4707-.7998.4707-1.293,0-2.2061-1.7939-4-4-4s-4,1.7939-4,4c0,2.3942,1.2089,4.5114,3.048,5.7742l-1.4329,1.4329c-2.1933-1.6429-3.6151-4.262-3.6151-7.2072,0-3.3086,2.6914-6,6-6,2.0848,0,3.9243,1.0688,5,2.6871,1.0757-1.6183,2.9152-2.6871,5-2.6871,3.3086,0,6,2.6914,6,6Z" fill="#2a2623" stroke-width="0"/>
</svg>