<?xml version="1.0" encoding="UTF-8"?><svg id="Icon" xmlns="http://www.w3.org/2000/svg" viewBox="0 0 40 24"><path d="M0,8h40v2H0v-2ZM35,14.6865c-1.0762-1.6182-2.915-2.6865-5-2.6865s-3.9238,1.0684-5,2.6865c-1.0762-1.6182-2.915-2.6865-5-2.6865s-3.9238,1.0684-5,2.6865c-1.0762-1.6182-2.915-2.6865-5-2.6865s-3.9238,1.0684-5,2.6865C3.9239,13.0684,2.085,12,0,12v2c2.2061,0,4,1.7939,4,4v5.575l1.9999.425h0v-6c0-2.2061,1.7939-4,4-4s4,1.7939,4,4v5.575s2,.425,2,.425v-6c0-2.2061,1.7939-4,4-4s4,1.7939,4,4v5.575l1.9999.425h0v-6c0-2.2061,1.7939-4,4-4s4,1.7939,4,4v5.575s2,.425,2,.425v-6c0-2.2061,1.7939-4,4-4v-2c-2.085,0-3.9238,1.0684-5,2.6865Z" style="fill:#2a2623; stroke-width:0px;"/></svg>