<?xml version="1.0" encoding="UTF-8"?>
<svg id="Icon" xmlns="http://www.w3.org/2000/svg" viewBox="0 0 24 24">
  <rect x="11" y="7" width="2" height="11" fill="#2a2623" stroke-width="0"/>
  <path d="m12,21c.5518,0,1,.4482,1,1h7.575l.425-2h-6.7662c-.5497-.6133-1.3473-1-2.2338-1s-1.6841.3867-2.2338,1H2v-12H0v14h11c0-.5518.4482-1,1-1Z" fill="#2a2623" stroke-width="0"/>
  <path d="m21.4287,3.8243l-1.873-.7012-.7023,1.877h-4.6196c-.5497-.6133-1.3473-1-2.2338-1s-1.6841.3867-2.2338,1H0v2h11c0-.5518.4482-1,1-1s1,.4482,1,1h5.105l-2.9561,7.901,1.7241,1.0989,3.3674-8.9999h1.7595v15h2V5h-3.0112l.4399-1.1758Z" fill="#2a2623" stroke-width="0"/>
  <polygon points="10 9 3.425 9 3 11 9.575 11 10 9" fill="#2a2623" stroke-width="0"/>
  <polygon points="7.575 14 8 12 3.425 12 3 14 7.575 14" fill="#2a2623" stroke-width="0"/>
  <polygon points="8.575 17 9 15 3.425 15 3 17 8.575 17" fill="#2a2623" stroke-width="0"/>
  <rect x="20.1934" y=".6006" width="2" height="2" transform="translate(12.2642 20.8877) rotate(-69.4767)" fill="#2a2623" stroke-width="0"/>
</svg>