<?xml version="1.0" encoding="UTF-8"?><svg id="Icon" xmlns="http://www.w3.org/2000/svg" viewBox="0 0 48 24"><path d="M36,16c-2.2061,0-4,1.7939-4,4h-12.575l-.425,2h13.5367c.6925,1.1948,1.9854,2,3.4633,2,2.2061,0,4-1.7939,4-4s-1.7939-4-4-4ZM36,22c-1.1025,0-2-.8975-2-2s.8975-2,2-2,2,.8975,2,2-.8975,2-2,2ZM34,13v-4c0-1.103-.8975-2-2-2H4l.425-2h27.575c2.2061,0,4,1.7944,4,4v4h-2ZM42.425,20l-.425,2h6V6c0-2.7568-2.2432-5-5-5H0v16c0,2.7568,2.2432,5,5,5h4.5367c.6925,1.1948,1.9854,2,3.4633,2,2.2061,0,4-1.7939,4-4s-1.7939-4-4-4-4,1.7939-4,4h-4c-1.6543,0-3-1.3457-3-3v-4h30v-2H2V3h41c1.6543,0,3,1.3457,3,3v10c-3.3086,0-6-2.6914-6-6v-3h3.575l.425-2h-6v5c0,4.4111,3.5889,8,8,8v2h-3.575ZM13,18c1.1025,0,2,.8975,2,2s-.8975,2-2,2-2-.8975-2-2,.8975-2,2-2Z" style="fill:#2a2623; stroke-width:0px;"/></svg>