<?xml version="1.0" encoding="UTF-8"?>
<svg id="Icon" xmlns="http://www.w3.org/2000/svg" viewBox="0 0 24 24">
  <path d="m12,24c5.3467,0,10.0947-3.5889,11.5479-8.7275l-1.9238-.5449c-.342,1.2095-.9033,2.3158-1.6329,3.2809-.5192-.3076-1.0728-.582-1.6553-.8218.3496-1.2802.572-2.6906.6409-4.1866h5.0233v-1C24,5.3828,18.6172,0,12,0S0,5.3828,0,12s5.3828,12,12,12Zm-6.5894-4.4849c.2891-.1537.5911-.2971.9047-.4291.2526.6004.5369,1.1577.8495,1.6646-.6293-.3491-1.2172-.764-1.7543-1.2355Zm5.5894,2.2744c-1.0938-.4647-2.069-1.6711-2.7828-3.3323.886-.2219,1.823-.3663,2.7828-.4259v3.7582Zm0-5.7623c-1.1913.0638-2.3447.2413-3.4315.5248-.287-1.0897-.4763-2.2903-.5424-3.552h3.9739v3.0272Zm2,5.7623v-3.7582c.9597.0596,1.8966.2042,2.7827.426-.7138,1.6611-1.689,2.8674-2.7827,3.3322Zm0-5.7623v-3.0272h3.9739c-.066,1.2618-.2554,2.4625-.5424,3.5522-1.0869-.2837-2.2403-.4612-3.4315-.5251Zm5.5876,3.4872c-.537.4695-1.123.8819-1.7477,1.2286.3107-.5048.5934-1.0595.8447-1.6567.313.1317.6144.2747.9031.4282Zm3.3625-8.5143h-2.9734c-.0689-1.4958-.2911-2.9061-.6407-4.1862.5818-.2396,1.1348-.5136,1.6533-.8208,1.0726,1.423,1.7746,3.1402,1.9608,5.007Zm-3.3608-6.5151c-.2891.1537-.5911.2971-.9047.4291-.2526-.6004-.5369-1.1577-.8495-1.6646.6293.3491,1.2172.764,1.7543,1.2355Zm-5.5894-2.2744c1.0938.4647,2.069,1.6711,2.7828,3.3323-.886.2219-1.823.3663-2.7828.4259v-3.7582Zm-2,0v3.7582c-.9598-.0596-1.8968-.204-2.7828-.4259.7138-1.6612,1.689-2.8676,2.7828-3.3323Zm0,5.7623v2.0272h2v-2.0272c1.1913-.0638,2.3447-.2413,3.4315-.5248.287,1.0897.4763,2.2903.5424,3.552H7.0261c.066-1.2617.2553-2.4623.5424-3.552,1.0868.2836,2.2402.461,3.4315.5248Zm-3.8351-4.7234c-.3126.507-.5969,1.0642-.8495,1.6646-.3136-.132-.6156-.2753-.9047-.4291.5371-.4716,1.125-.8864,1.7543-1.2355Zm-3.1542,2.7436c.5185.3072,1.0715.5812,1.6533.8208-.3496,1.2801-.5718,2.6904-.6407,4.1862h-2.0233v2h2.0233c.0689,1.4958.2911,2.9061.6407,4.1862-.5818.2396-1.1348.5136-1.6533.8208-1.2617-1.6738-2.0107-3.7545-2.0107-6.007s.749-4.3333,2.0107-6.007Z" fill="#2a2623" stroke-width="0"/>
</svg>