<?xml version="1.0" encoding="UTF-8"?><svg id="Icon" xmlns="http://www.w3.org/2000/svg" viewBox="0 0 25 24"><path d="M4,13c-2.2061,0-4,1.7939-4,4s1.7939,4,4,4,4-1.7939,4-4-1.7939-4-4-4ZM4,19c-1.1025,0-2-.8975-2-2s.8975-2,2-2,2,.8975,2,2-.8975,2-2,2ZM19,13c-1.8609,0-3.4285,1.2764-3.8735,3h-5.7015l-.425,1.9999h0s6.1265,0,6.1265,0c.445,1.7236,2.0126,3,3.8735,3,2.2061,0,4-1.7939,4-4s-1.7939-4-4-4ZM19,19c-1.1025,0-2-.8975-2-2s.8975-2,2-2,2,.8975,2,2-.8975,2-2,2ZM25,15v3h-2v-3c0-1.71-1.29-3-3-3h-4v-2h4c2.8037,0,5,2.1963,5,5ZM13,4c2.7568,0,5,2.2432,5,5h-2c0-1.6543-1.3457-3-3-3h-7c-1.6543,0-3,1.3457-3,3,0,.5518.4482,1,1,1h5v-2h2v2.4999l.425-1.9999h2.575l-.425,1.9999h-2.575v3l.425-1.9999h2.575l-.425,1.9999h-2.575v.5001h-2v-2h-5c-1.6543,0-3-1.3457-3-3,0-2.7568,2.2432-5,5-5h7Z" style="fill:#2a2623; stroke-width:0px;"/></svg>