<?xml version="1.0" encoding="UTF-8"?>
<svg id="Icon" xmlns="http://www.w3.org/2000/svg" viewBox="0 0 32 24">
  <polygon points="16.8809 19.2686 16.1191 18.8291 16 19.0355 15.8809 18.8291 15.1191 19.2686 15.2386 19.4756 15 19.4756 15 20.3545 15.2386 20.3545 15.1191 20.5615 15.8809 21.001 16 20.7946 16.1191 21.001 16.8809 20.5615 16.7614 20.3545 17 20.3545 17 19.4756 16.7614 19.4756 16.8809 19.2686" fill="#2a2623" stroke-width="0"/>
  <polygon points="12.6885 17.9746 12.4824 18.0936 12.4824 17.8555 11.6025 17.8555 11.6025 18.0941 11.3955 17.9746 10.9561 18.7363 11.1625 18.8555 10.9561 18.9746 11.3955 19.7363 11.6025 19.6168 11.6025 19.8555 12.4824 19.8555 12.4824 19.6174 12.6885 19.7363 13.1279 18.9746 12.9215 18.8555 13.1279 18.7363 12.6885 17.9746" fill="#2a2623" stroke-width="0"/>
  <polygon points="10.0264 15.3105 9.2646 14.8711 9.1455 15.0775 9.0264 14.8711 8.2646 15.3105 8.3842 15.5176 8.1455 15.5176 8.1455 16.3965 8.3842 16.3965 8.2646 16.6035 9.0264 17.043 9.1455 16.8365 9.2646 17.043 10.0264 16.6035 9.9069 16.3965 10.1455 16.3965 10.1455 15.5176 9.9069 15.5176 10.0264 15.3105" fill="#2a2623" stroke-width="0"/>
  <polygon points="8.5244 13 8.5244 12.7614 8.7314 12.8809 9.1709 12.1191 8.9645 12 9.1709 11.8809 8.7314 11.1191 8.5244 11.2386 8.5244 11 7.6455 11 7.6455 11.2386 7.4385 11.1191 6.999 11.8809 7.2054 12 6.999 12.1191 7.4385 12.8809 7.6455 12.7614 7.6455 13 8.5244 13" fill="#2a2623" stroke-width="0"/>
  <polygon points="10.0264 7.3955 9.2646 6.9561 9.1455 7.1625 9.0264 6.9561 8.2646 7.3955 8.3842 7.6025 8.1455 7.6025 8.1455 8.4824 8.3836 8.4824 8.2646 8.6885 9.0264 9.1279 9.1455 8.9215 9.2646 9.1279 10.0264 8.6885 9.9074 8.4824 10.1455 8.4824 10.1455 7.6025 9.9069 7.6025 10.0264 7.3955" fill="#2a2623" stroke-width="0"/>
  <polygon points="12.6885 4.2646 12.4824 4.3836 12.4824 4.1455 11.6025 4.1455 11.6025 4.3842 11.3955 4.2646 10.9561 5.0264 11.1625 5.1455 10.9561 5.2646 11.3955 6.0264 11.6025 5.9069 11.6025 6.1455 12.4824 6.1455 12.4824 5.9074 12.6885 6.0264 13.1279 5.2646 12.9215 5.1455 13.1279 5.0264 12.6885 4.2646" fill="#2a2623" stroke-width="0"/>
  <polygon points="16.8809 3.4385 16.1191 2.999 16 3.2054 15.8809 2.999 15.1191 3.4385 15.2386 3.6455 15 3.6455 15 4.5244 15.2386 4.5244 15.1191 4.7314 15.8809 5.1709 16 4.9645 16.1191 5.1709 16.8809 4.7314 16.7614 4.5244 17 4.5244 17 3.6455 16.7614 3.6455 16.8809 3.4385" fill="#2a2623" stroke-width="0"/>
  <polygon points="20.6035 4.2646 20.3965 4.3842 20.3965 4.1455 19.5176 4.1455 19.5176 4.3842 19.3105 4.2646 18.8711 5.0264 19.0775 5.1455 18.8711 5.2646 19.3105 6.0264 19.5176 5.9069 19.5176 6.1455 20.3965 6.1455 20.3965 5.9069 20.6035 6.0264 21.043 5.2646 20.8365 5.1455 21.043 5.0264 20.6035 4.2646" fill="#2a2623" stroke-width="0"/>
  <polygon points="21.9736 8.6885 22.7354 9.1279 22.8545 8.9215 22.9736 9.1279 23.7354 8.6885 23.6164 8.4824 23.8545 8.4824 23.8545 7.6025 23.6158 7.6025 23.7354 7.3955 22.9736 6.9561 22.8545 7.1625 22.7354 6.9561 21.9736 7.3955 22.0931 7.6025 21.8545 7.6025 21.8545 8.4824 22.0926 8.4824 21.9736 8.6885" fill="#2a2623" stroke-width="0"/>
  <polygon points="24.5615 11.1191 24.3545 11.2386 24.3545 11 23.4756 11 23.4756 11.2386 23.2686 11.1191 22.8291 11.8809 23.0355 12 22.8291 12.1191 23.2686 12.8809 23.4756 12.7614 23.4756 13 24.3545 13 24.3545 12.7614 24.5615 12.8809 25.001 12.1191 24.7946 12 25.001 11.8809 24.5615 11.1191" fill="#2a2623" stroke-width="0"/>
  <polygon points="23.7363 15.3105 22.9746 14.8711 22.8555 15.0775 22.7363 14.8711 21.9746 15.3105 22.0941 15.5176 21.8555 15.5176 21.8555 16.3965 22.0941 16.3965 21.9746 16.6035 22.7363 17.043 22.8555 16.8365 22.9746 17.043 23.7363 16.6035 23.6168 16.3965 23.8555 16.3965 23.8555 15.5176 23.6168 15.5176 23.7363 15.3105" fill="#2a2623" stroke-width="0"/>
  <polygon points="20.6035 17.9736 20.3965 18.0931 20.3965 17.8545 19.5176 17.8545 19.5176 18.0931 19.3105 17.9736 18.8711 18.7354 19.0775 18.8545 18.8711 18.9736 19.3105 19.7354 19.5176 19.6158 19.5176 19.8545 20.3965 19.8545 20.3965 19.6158 20.6035 19.7354 21.043 18.9736 20.8365 18.8545 21.043 18.7354 20.6035 17.9736" fill="#2a2623" stroke-width="0"/>
  <path d="m0,24h32V0H0v24ZM2,2h28v20H2V2Z" fill="#2a2623" stroke-width="0"/>
</svg>