<?xml version="1.0" encoding="UTF-8"?><svg id="Icon" xmlns="http://www.w3.org/2000/svg" viewBox="0 0 24 24"><path d="M6,22c2.2061,0,4-1.7939,4-4s-1.7939-4-4-4-4,1.7939-4,4,1.7939,4,4,4ZM6,16c1.1025,0,2,.8975,2,2s-.8975,2-2,2-2-.8975-2-2,.8975-2,2-2ZM18,14c-2.2061,0-4,1.7939-4,4s1.7939,4,4,4,4-1.7939,4-4-1.7939-4-4-4ZM18,20c-1.1025,0-2-.8975-2-2s.8975-2,2-2,2,.8975,2,2-.8975,2-2,2ZM9.9482,14.3164l-1.8965-.6328,2-6,.9482.3164h1c0,2.2056,1.7939,4,4,4v2c-2.1066,0-3.9628-1.0912-5.0336-2.7381l-.8502,2.5506,1.3584-1.3584c2.3398,2.3398,2.3398,6.1455,0,8.4854l-1.4141-1.4141c1.5502-1.5502,1.5592-4.067.0276-5.6288l-.14.4199ZM10,5.5c0-.8284.6716-1.5,1.5-1.5s1.5.6716,1.5,1.5-.6716,1.5-1.5,1.5-1.5-.6716-1.5-1.5Z" style="fill:#2a2623; stroke-width:0px;"/></svg>