<?xml version="1.0" encoding="UTF-8"?><svg id="Icon" xmlns="http://www.w3.org/2000/svg" viewBox="0 0 24 32"><path d="M14.5,8.7505c-.5637.3272-1.3156.2522-1.793-.2252-1.377-1.3789-3.5371-1.3789-4.9141,0l-.293.293v5.1816h2v.0007c.5721-.3495,1.3018-.2823,1.793.2063.6885.6895,1.5732,1.0332,2.457,1.0332.2515,0,.5029-.0288.75-.0845v13.9193l2,.4249V8.425l-2-.425v.7505ZM14.5,13.0222c-.5674.3406-1.2994.2643-1.793-.2292-.881-.8823-2.0891-1.1918-3.207-.9326v-2.1505c.5674-.3418,1.2998-.2637,1.793.2295.8843.8856,2.0916,1.2014,3.207.9495v2.1333Z" style="fill:#2a2623;"/><path d="M19.5,1v.7505c-.5637.3272-1.3156.2522-1.793-.2252-1.377-1.3789-3.5371-1.3789-4.9141,0l-.293.293v5.1816h2v.0007c.5721-.3495,1.3018-.2823,1.793.2063.6885.6895,1.5732,1.0332,2.457,1.0332.2515,0,.5029-.0288.75-.0845v19.4193l2,.4249V1.425l-2-.425ZM17.707,5.793c-.8812-.8831-2.089-1.1923-3.207-.9327v-2.1503c.5674-.3418,1.2998-.2646,1.793.2295.8843.8856,2.0916,1.2014,3.207.9495v2.1333c-.5674.3406-1.2994.2643-1.793-.2292Z" style="fill:#2a2623;"/><path d="M9.5,15v.7505c-.5637.3272-1.3156.2522-1.793-.2252-1.377-1.3789-3.5371-1.3789-4.9141,0l-.293.293v5.1816h2v.0007c.5721-.3495,1.3018-.2823,1.793.2063.6885.6895,1.5732,1.0332,2.457,1.0332.2515,0,.5029-.0288.75-.0845v9.4193l2,.4249V15.425l-2-.425ZM9.5,20.0222c-.5674.3406-1.2994.2643-1.793-.2292-.8817-.8829-2.0894-1.1923-3.207-.9329v-2.1501c.5664-.3428,1.2998-.2637,1.793.2295.8843.8856,2.0916,1.2014,3.207.9495v2.1333Z" style="fill:#2a2623;"/></svg>