<?xml version="1.0" encoding="UTF-8"?><svg id="Icon" xmlns="http://www.w3.org/2000/svg" viewBox="0 0 24 24"><path d="M4,8l.425-2h7.575l-.425,1.9999h-7.575ZM16.5,17c-2.4814,0-4.5-2.0186-4.5-4.5s2.0186-4.5,4.5-4.5,4.5,2.0186,4.5,4.5-2.0186,4.5-4.5,4.5ZM19,12.5c0-1.3789-1.1211-2.5-2.5-2.5s-2.5,1.1211-2.5,2.5,1.1211,2.5,2.5,2.5,2.5-1.1211,2.5-2.5ZM19.293,16.707l3,3,1.4141-1.4141-3-3-1.4141,1.4141ZM16,21c0,1.6543-1.3457,3-3,3H3c-1.6543,0-3-1.3457-3-3,0-.7402.2715-1.4512.7656-2.001l4.2344-4.4023v-5.5967h2v6.4033l-1.5363,1.5967h5.0729l-1.5366-1.5967v-6.4033h2v5.5967l4.2109,4.377c.5176.5752.7891,1.2861.7891,2.0264ZM14,21c0-.2461-.0898-.4824-.2539-.665l-2.8299-2.9406-.3412,1.6055h-5.575s.414-1.9483.414-1.9483l-3.1835,3.3087c-.1406.1572-.2305.3936-.2305.6396,0,.5518.4482,1,1,1h10c.5518,0,1-.4482,1-1ZM5.5,3.5c0,.8284.6716,1.5,1.5,1.5s1.5-.6716,1.5-1.5-.6716-1.5-1.5-1.5-1.5.6716-1.5,1.5ZM8.5166,1.5c0,.8284.6716,1.5,1.5,1.5s1.5-.6716,1.5-1.5-.6716-1.5-1.5-1.5-1.5.6716-1.5,1.5Z" style="fill:#2a2623; stroke-width:0px;"/></svg>