<?xml version="1.0" encoding="UTF-8"?><svg id="Icon" xmlns="http://www.w3.org/2000/svg" viewBox="0 0 24 24"><path d="M4.3584,8h.6416v-.575l2-.425v1h2v2h-4.6416c-.1973,0-.3584.1611-.3584.3584v8.2832c0,.1973.1611.3584.3584.3584h15.2832c.1973,0,.3584-.1611.3584-.3584v-8.2832c0-.1973-.1611-.3584-.3584-.3584h-4.6416v-2h4.6416c1.3008,0,2.3584,1.0576,2.3584,2.3584v8.2832c0,1.3008-1.0576,2.3584-2.3584,2.3584H4.3584c-1.3008,0-2.3584-1.0576-2.3584-2.3584v-8.2832c0-1.3008,1.0576-2.3584,2.3584-2.3584ZM11,6h2v2h2v-2c0-1.1025-.8975-2-2-2h-2c-1.1025,0-2,.8975-2,2v2h2v-2ZM8,14c0-2.2061,1.7939-4,4-4s4,1.7939,4,4-1.7939,4-4,4-4-1.7939-4-4ZM10,14c0,1.1025.8975,2,2,2s2-.8975,2-2-.8975-2-2-2-2,.8975-2,2Z" style="fill:#2a2623; stroke-width:0px;"/></svg>