<?xml version="1.0" encoding="UTF-8"?><svg id="Icon" xmlns="http://www.w3.org/2000/svg" viewBox="0 0 24 24"><path d="M10,13l-2-.425v-1.575c0-2.2056,1.7939-4,4-4h1v1c0,1.6543,1.3457,3,3,3l-.4213,1.9824c-.9622-.0807-1.8479-.4352-2.5787-.9851v2.5395c1.1948.6925,2,1.9854,2,3.4633v3.575l-2,.425v-4c0-1.1025-.8975-2-2-2v-6.7313c-.5975.3462-1,.9927-1,1.7313v2ZM12,17h-2c0,1.6543-1.3457,3-3,3l.4212,1.9821c2.5605-.2147,4.5788-2.3671,4.5788-4.9821ZM12.5,6c.8284,0,1.5-.6716,1.5-1.5s-.6716-1.5-1.5-1.5-1.5.6716-1.5,1.5.6716,1.5,1.5,1.5Z" style="fill:#2a2623; stroke-width:0px;"/></svg>