<?xml version="1.0" encoding="UTF-8"?><svg id="Icon" xmlns="http://www.w3.org/2000/svg" viewBox="0 0 24 24"><path d="M24,12h-2c0-.5518-.4482-1-1-1h-1c0-1.1025-.8975-2-2-2-2.2061,0-4-1.7939-4-4l2.0483.4353c.1994.8939.9987,1.5647,1.9517,1.5647,1.4943,0,2.7993.8232,3.4859,2.0399,1.424.2329,2.5141,1.4713,2.5141,2.9601ZM20.9775,22c-1.1025,0-2-.8975-2-2h-.9775c2.2061,0,4-1.7939,4-4v-4h0l-1.9999.425v3.575c0,1.1025-.8975,2-2,2h-3l.425,2h1.5526c0,2.2061,1.7939,4,4,4h2c0-1.1025-.8975-2-2-2ZM15,17h-2c0,1.6543-1.3457,3-3,3v2c2.7568,0,5-2.2432,5-5ZM12.0605,22h-4.0605v-2c0-2.7568,2.2432-5,5-5s5-2.2432,5-5h-2c0,1.3164-.8525,2.4365-2.0341,2.8396l-.3942-1.855c-3.1094-.2203-5.5717-2.82-5.5717-5.9846v-2H1l.425,2h4.575c0,.3386.0214.6723.0624,1H2l.425,1.9999h4.1592c.1405.346.3042.6801.4897,1.0001H3l.425,1.9999h5.2899c1.2644,1.1152,2.8825,1.8378,4.6621,1.9756-.1236.0156-.2492.0245-.377.0245-1.0729,0-2.0902.243-3,.6765v-1.6765h-6l.425,1.9999h4.9734c-2.0345,1.226-3.3984,3.4568-3.3984,6.0001-1.1025,0-2-.8975-2-2,0-2.2061-1.7939-4-4-4v2c1.1025,0,2,.8975,2,2,0,2.2061,1.7939,4,4,4v2h8.0605c0-1.1025-.8975-2-2-2Z" style="fill:#2a2623; stroke-width:0px;"/></svg>