<?xml version="1.0" encoding="UTF-8"?>
<svg id="Icon" xmlns="http://www.w3.org/2000/svg" viewBox="0 0 24 24">
  <path d="m12,13c0-1.6543-1.3457-3-3-3v2c.5518,0,1,.4482,1,1v1h2v-1Z" fill="#2a2623" stroke-width="0"/>
  <path d="m8,22c2.2061,0,4-1.7939,4-4s-1.7939-4-4-4-4,1.7939-4,4,1.7939,4,4,4Zm0-6c1.1025,0,2,.8975,2,2s-.8975,2-2,2-2-.8975-2-2,.8975-2,2-2Z" fill="#2a2623" stroke-width="0"/>
  <path d="m20,9.7662c.6133.5497,1,1.3473,1,2.2338h2c0-2.7568-2.2432-5-5-5v14.575l2,.425v-12.2338Z" fill="#2a2623" stroke-width="0"/>
  <path d="m16,7c-1.71,0-3-1.29-3-3h-2c0,2.8037,2.1963,5,5,5v-2Z" fill="#2a2623" stroke-width="0"/>
  <path d="m4,7h-2c0,2.8037,2.1963,5,5,5v-2c-1.71,0-3-1.29-3-3Z" fill="#2a2623" stroke-width="0"/>
  <polygon points="16 22 16 13 14 13 14 21.575 16 22" fill="#2a2623" stroke-width="0"/>
  <circle cx="8" cy="7" r="2" fill="#2a2623" stroke-width="0"/>
  <circle cx="17" cy="4" r="2" fill="#2a2623" stroke-width="0"/>
  <circle cx="2.5" cy="20.5" r="1.5" fill="#2a2623" stroke-width="0"/>
</svg>