<?xml version="1.0" encoding="UTF-8"?>
<svg id="Icon" xmlns="http://www.w3.org/2000/svg" viewBox="0 0 24 24">
  <path d="m8,12c0-.463-.1055-.9017-.2936-1.2936l.0006.0006,2.5-2.5-1.4141-1.4141-2.5,2.5.0006.0006c-.3919-.188-.8306-.2936-1.2936-.2936-1.6543,0-3,1.3457-3,3s1.3457,3,3,3,3-1.3457,3-3Zm-4,0c0-.5518.4482-1,1-1s1,.4482,1,1-.4482,1-1,1-1-.4482-1-1Z" fill="#2a2623" stroke-width="0"/>
  <path d="m7,21h2c0-1.6543,1.3457-3,3-3s3,1.3457,3,3h2c0-2.7568-2.2432-5-5-5-.4819,0-.9481.0687-1.3893.1966l-2.4036-2.4036-1.4141,1.4141,1.9785,1.9785c-1.0828.9179-1.7715,2.2872-1.7715,3.8145Z" fill="#2a2623" stroke-width="0"/>
  <path d="m18.2422,7l-1.4141,1.4141-2.1211-2.1211-.0006.0006c.188-.3919.2936-.8306.2936-1.2936,0-1.6543-1.3457-3-3-3s-3,1.3457-3,3,1.3457,3,3,3c.463,0,.9017-.1055,1.2936-.2936l-.0006.0006,2.1211,2.1211-1.4141,1.4141,2.8281,2.8291.0004-.0004,1.1133-1.7142-1.8207-1.8216,1.4141-1.4141,2.122,2.121,1.1134-1.7143-2.5284-2.5278Zm-6.2422-1c-.5518,0-1-.4482-1-1s.4482-1,1-1,1,.4482,1,1-.4482,1-1,1Z" fill="#2a2623" stroke-width="0"/>
  <polygon points="5 22 5.425 24 19 24 18.575 22 5 22" fill="#2a2623" stroke-width="0"/>
</svg>