<?xml version="1.0" encoding="UTF-8"?>
<svg id="Icon" xmlns="http://www.w3.org/2000/svg" viewBox="0 0 24 27">
  <rect x="21" y="19" width="2" height="8" fill="#2a2623" stroke-width="0"/>
  <polygon points="9 13 9 12 7.2441 6 2.7559 6 1.042 11.7129 1 27 3 27 3 12.1465 4.2441 8 5.7559 8 7 12.1465 7 15 19.4648 15 20.1318 16 7 16 7.425 18 23.8682 18 20.5352 13 9 13" fill="#2a2623" stroke-width="0"/>
  <polygon points="6 5 6 3 7 3 7 1 6 1 6 0 4 0 4 1 3 1 3 3 4 3 4 5 6 5" fill="#2a2623" stroke-width="0"/>
  <polygon points="11 19 9 19.425 9 25 11 24.575 11 19" fill="#2a2623" stroke-width="0"/>
  <polygon points="15 19 13 19.425 13 25 15 24.575 15 19" fill="#2a2623" stroke-width="0"/>
  <polygon points="17 25 19 24.575 19 19 17 19.425 17 25" fill="#2a2623" stroke-width="0"/>
</svg>