<?xml version="1.0" encoding="UTF-8"?>
<svg id="Icon" xmlns="http://www.w3.org/2000/svg" viewBox="0 0 24 24">
  <path d="m1,16c0,1.5977,1.4019,3,3,3v-2c-.4951,0-1-.5049-1-1v-6c0-.5518.4487-1,1-1h9c.5518,0,1,.4482,1,1v6c0,.5518-.4482,1-1,1h-7v1c0,1.1025-.897,2-2,2l.4202,1.9772c1.6727-.1755,3.0421-1.3851,3.4534-2.9772h5.1265c1.6543,0,3-1.3457,3-3v-6c0-1.6543-1.3457-3-3-3H4c-1.6543,0-3,1.3457-3,3v6Z" fill="#2a2623" stroke-width="0"/>
  <path d="m17,13v1c0,2.0641,1.5706,3.7673,3.5797,3.978l.4203-1.978c-1.1025,0-2-.8975-2-2v-1h-2Z" fill="#2a2623" stroke-width="0"/>
  <path d="m24,6c0-1.5977-1.4023-3-3-3h-9c-1.5981,0-3,1.4023-3,3h2c0-.4951.5049-1,1-1h9c.4951,0,1,.5049,1,1v6c0,.4951-.5049,1-1,1v2c1.5977,0,3-1.4023,3-3v-6Z" fill="#2a2623" stroke-width="0"/>
</svg>