<?xml version="1.0" encoding="UTF-8"?>
<svg id="Icon" xmlns="http://www.w3.org/2000/svg" viewBox="0 0 24 24">
  <polygon points="11 9 11 10 10 10 10 12 11 12 11 13 13 13 13 12 14 12 14 10 13 10 13 9 11 9" fill="#2a2623" stroke-width="0"/>
  <polygon points="21 14.425 21 22 23 22 23 14 21 14.425" fill="#2a2623" stroke-width="0"/>
  <polygon points="3 14 1 14.425 1 22 3 22 3 14" fill="#2a2623" stroke-width="0"/>
  <polygon points="6 22 8 22 8 8 6 8.425 6 11 0 11 0 13 6 13 6 22" fill="#2a2623" stroke-width="0"/>
  <rect x="5" y="5" width="14" height="2" fill="#2a2623" stroke-width="0"/>
  <polygon points="24 11 18 11 18 8 16 8.425 16 22 18 22 18 13 24 13 24 11" fill="#2a2623" stroke-width="0"/>
  <polygon points="15 21.575 15 15 9 15 9 22 11 21.575 11 17 13 17 13 22 15 21.575" fill="#2a2623" stroke-width="0"/>
</svg>