<?xml version="1.0" encoding="UTF-8"?><svg id="Icon" xmlns="http://www.w3.org/2000/svg" viewBox="0 0 24 24"><path d="M7.8789,7.8784c-.5664.5669-.8789,1.3203-.8789,2.1216s.3125,1.5547.8789,2.1216l-1.4141,1.4146c-.9443-.9448-1.4648-2.2007-1.4648-3.5361s.5205-2.5913,1.4648-3.5356l1.4141,1.4141ZM22.207,20.7929l-1.7145,1.1136-5.5895-5.5895c-1.3552,1.0543-3.0569,1.683-4.9029,1.683-4.4111,0-8-3.5889-8-8S5.5889,2,10,2s8,3.5889,8,8c0,1.8459-.6288,3.5477-1.683,4.9029l5.89,5.89ZM16,10c0-3.3086-2.6914-6-6-6s-6,2.6914-6,6,2.6914,6,6,6,6-2.6914,6-6Z" style="fill:#2a2623;"/></svg>