<?xml version="1.0" encoding="UTF-8"?><svg id="Icon" xmlns="http://www.w3.org/2000/svg" viewBox="0 0 24 24"><path d="M8.425,22h11.575l-.425,1.9999h.425s-12,0-12,0h0s.425-2,.425-2ZM3,19.9999h0s6.575,0,6.575,0l.425-1.9999H3.425l-.425,1.9999ZM18.749,7.6357l-4.2422-4.2422-1.4141,1.4141,4.2422,4.2422,1.4141-1.4141ZM6.7285,11.1719l4.2422,4.2422,5.6572-5.6572-1.4141-1.4141-4.2432,4.2432-1.4141-1.4141,4.2432-4.2432-1.4141-1.4141-5.6572,5.6572ZM5.3145,14l2.8281,2.8281,1.4141-1.4141-2.8281-2.8281-1.4141,1.4141ZM16.6279,4.1006l1.4141,1.4141,2.1211-2.1211-1.4141-1.4141-2.1211,2.1211ZM14.7041,21.7822c1.1348-1.125,1.7598-2.6211,1.7598-4.2119s-.625-3.0859-1.7607-4.21l-1.4062,1.4219c.752.7451,1.167,1.7354,1.167,2.7881,0,1.0537-.4141,2.0449-1.168,2.79l1.4082,1.4219Z" style="fill:#2a2623; stroke-width:0px;"/></svg>