<?xml version="1.0" encoding="UTF-8"?>
<svg id="Icon" xmlns="http://www.w3.org/2000/svg" viewBox="0 0 27 24">
  <path d="m15,14c-4.4111,0-8,3.5889-8,8h2c0-3.3086,2.6914-6,6-6,1.8413,0,3.4911.8338,4.5926,2.1434l1.5312-1.2849c-1.4687-1.7465-3.6687-2.8586-6.1238-2.8586Z" fill="#2a2623" stroke-width="0"/>
  <path d="m15,10.5c-6.3408,0-11.5,5.1592-11.5,11.5h2c0-5.2383,4.2617-9.5,9.5-9.5,2.9156,0,5.5283,1.3207,7.2723,3.3949l1.5312-1.2849c-2.1113-2.511-5.2741-4.11-8.8036-4.11Z" fill="#2a2623" stroke-width="0"/>
  <path d="m15,7.0029C6.7305,7.0029.0029,13.7305.0029,22h2c0-7.167,5.8301-12.9971,12.9971-12.9971,3.9895,0,7.5646,1.8067,9.9506,4.6447l1.5313-1.2849c-2.7532-3.2749-6.8786-5.3597-11.4819-5.3597Z" fill="#2a2623" stroke-width="0"/>
</svg>