<?xml version="1.0" encoding="UTF-8"?>
<svg id="Icon" xmlns="http://www.w3.org/2000/svg" viewBox="0 0 24 24">
  <path d="m4,12.7119v7.5762c0,2.0469,1.665,3.7119,3.7119,3.7119h8.5762c2.0469,0,3.7119-1.665,3.7119-3.7119v-7.5762c0-2.0469-1.665-3.7119-3.7119-3.7119H7.7119c-2.0469,0-3.7119,1.665-3.7119,3.7119Zm2,0c0-.9443.7676-1.7119,1.7119-1.7119h8.5762c.9443,0,1.7119.7676,1.7119,1.7119v7.5762c0,.9443-.7676,1.7119-1.7119,1.7119H7.7119c-.9443,0-1.7119-.7676-1.7119-1.7119v-7.5762Z" fill="#2a2623" stroke-width="0"/>
  <path d="m17,8v-2c0-2.7568-2.2432-5-5-5s-5,2.2432-5,5v2h2v-2c0-1.6543,1.3457-3,3-3s3,1.3457,3,3v2h2Z" fill="#2a2623" stroke-width="0"/>
  <path d="m11,17.828v2.172l2-.425v-1.747c1.1639-.4128,2-1.5243,2-2.828,0-1.6543-1.3457-3-3-3s-3,1.3457-3,3c0,1.3037.8361,2.4152,2,2.828Zm1-3.828c.5518,0,1,.4482,1,1s-.4482,1-1,1-1-.4482-1-1,.4482-1,1-1Z" fill="#2a2623" stroke-width="0"/>
</svg>