<?xml version="1.0" encoding="UTF-8"?>
<svg id="Icon" xmlns="http://www.w3.org/2000/svg" viewBox="0 0 24 24">
  <path d="m4,14c0-.5918.0742-1.1812.2207-1.7505.6348-2.4673,2.5615-4.394,5.0283-5.0293l-.498-1.9365c-3.1729.8164-5.6504,3.2944-6.4678,6.4678-.0602.2353-.1108.4731-.152.7126-1.2666.672-2.1312,2.0045-2.1312,3.5359h2c0-1.1025.8975-2,2-2Z" fill="#2a2623" stroke-width="0"/>
  <path d="m19,24v-3.2979c1.0225-.9102,1.8281-2.0518,2.3447-3.3262l-1.8535-.752c-.4492,1.1104-1.1807,2.0889-2.1133,2.8301l-.3779.3008v2.2451h-2v2h4Z" fill="#2a2623" stroke-width="0"/>
  <path d="m17,8c0-.7388.4029-1.3846,1-1.7309v2.832l.2529.2847c.9326,1.0479,1.5186,2.3408,1.6934,3.7383l1.9844-.248c-.209-1.6719-.874-3.2275-1.9307-4.5229v-4.353h-1c-2.2061,0-4,1.7944-4,4h2Z" fill="#2a2623" stroke-width="0"/>
  <path d="m6.626,19.4609c-1.1797-.9463-2.0332-2.2637-2.4053-3.71l-1.9375.498c.4385,1.7051,1.3965,3.2695,2.7168,4.4541v3.2969h4v-2h-2v-2.2383l-.374-.3008Z" fill="#2a2623" stroke-width="0"/>
  <polygon points="9 10 14.575 10 15 8 9.425 8 9 10" fill="#2a2623" stroke-width="0"/>
  <rect x="9" y="20" width="6" height="2" fill="#2a2623" stroke-width="0"/>
  <path d="m12,7c1.6543,0,3-1.3457,3-3s-1.3457-3-3-3-3,1.3457-3,3,1.3457,3,3,3Zm0-4c.5518,0,1,.4487,1,1s-.4482,1-1,1-1-.4487-1-1,.4482-1,1-1Z" fill="#2a2623" stroke-width="0"/>
  <rect x="22" y="13" width="2" height="4" fill="#2a2623" stroke-width="0"/>
  <path d="m18,11.9999c0-.5522-.4477-.9999-1-.9999s-.9999.4477-.9999.9999.4477,1,.9999,1,1-.4477,1-1Z" fill="#2a2623" stroke-width="0"/>
</svg>