<?xml version="1.0" encoding="UTF-8"?><svg id="Icon" xmlns="http://www.w3.org/2000/svg" viewBox="0 0 24 24"><path d="M15.6895,14l5.293,2.0752-.7305,1.8613-4.9414-1.9365h-2.3105v-2h2.6895ZM13,10c1.6543,0,3,1.3457,3,3h2c0-2.7568-2.2432-5-5-5v2ZM10,17c0,1.6543-1.3457,3-3,3v2c2.7568,0,5-2.2432,5-5v-1h-2v1ZM7,3.5c0-.8285-.6716-1.5-1.5-1.5s-1.5.6715-1.5,1.5.6716,1.5,1.5,1.5,1.5-.6716,1.5-1.5ZM14,5c0-1.1046-.8954-2-2-2s-2,.8954-2,2,.8954,2,2,2,2-.8954,2-2ZM11,8c-1.5077,0-2.7585-1.1179-2.9685-2.5683l-2.0315-.4317c0,2.4145,1.7206,4.4349,4,4.8995v4.1005h2v-6h-1Z" style="fill:#2a2623;"/></svg>