<?xml version="1.0" encoding="UTF-8"?><svg id="Icon" xmlns="http://www.w3.org/2000/svg" viewBox="0 0 24 24"><path d="M9,22l-.425,2h-4.575l.425-2h4.575ZM15.425,22l-.425,2h4.575l.425-2h-4.575ZM7.8184,21h-2.1366l2.3563-6.2822,1.0109-4.7178h-5.049l.425-2h5.0526l.6428-3h-4.1204l.425-2h4.124l.451-2.1052v-.8948h2v.8948l.451,2.1052h4.549l-.425,2h-3.6954l.6428,3h5.4775l-.425,2h-4.624l1.0109,4.7178,2.3563,6.2822h-2.1331l-1.429-3.8257-6.4745,2.5901-.4633,1.2355ZM11.5174,8h.9601l-.4792-2.2362-.4809,2.2362ZM10.8185,11.2501l2.5763,1.0306-.4887-2.2807h-1.8187l-.2689,1.2501ZM9.2322,17.2299l4.8239-1.9298-.0336-.0901-.1228-.5729-3.5078-1.4033-.4554,2.1178-.7043,1.8783Z" style="fill:#2a2623; stroke-width:0px;"/></svg>