<?xml version="1.0" encoding="UTF-8"?>
<svg id="Icon" xmlns="http://www.w3.org/2000/svg" viewBox="0 0 24 24">
  <path d="m15.3383,17h-1.9133l-.425,2h2.0359c.2434,1.6937,1.7042,3,3.4641,3,1.9297,0,3.5-1.5703,3.5-3.5,0-1.3932-.8187-2.5989-2-3.1617v-.3383c0-1.6543-1.3457-3-3-3h-3.2795l-1.333-4h.6125v-2H3l.425,2h6.8541l1.7209,5.1626v.8374h5c.5518,0,1,.4482,1,1v.0359c-1.1774.1692-2.1675.9267-2.6617,1.9641Zm3.1617,0c.8271,0,1.5.6729,1.5,1.5s-.6729,1.5-1.5,1.5-1.5-.6729-1.5-1.5.6729-1.5,1.5-1.5Z" fill="#2a2623" stroke-width="0"/>
  <path d="m12,17c0-2.7568-2.2432-5-5-5-.3423,0-.6768.0347-1,.1005v-3.1005h-2v4.0026c-1.2137.9131-2,2.3652-2,3.9974,0,2.7568,2.2432,5,5,5s5-2.2432,5-5Zm-5,3c-1.6543,0-3-1.3457-3-3s1.3457-3,3-3,3,1.3457,3,3-1.3457,3-3,3Z" fill="#2a2623" stroke-width="0"/>
</svg>