<?xml version="1.0" encoding="UTF-8"?><svg id="Icon" xmlns="http://www.w3.org/2000/svg" viewBox="0 0 24 24"><path d="M11,14.9282v5.0718h2v-5.0718c3.3875-.4868,6-3.4079,6-6.9282,0-1.6675-.3887-3.2144-1.124-4.4746-.5566-.9546-.876-2.2393-.876-3.5254h-2c0,1.6538.4082,3.2637,1.1484,4.5332.4951.8476.7818,1.8879.84,3.0299-1.2991,1.0298-3.144.9954-4.2814-.1403-1.4995-1.5002-3.6465-1.9479-5.4804-1.3291.1429-.5684.3518-1.0938.624-1.5605.7412-1.2695,1.1494-2.8794,1.1494-4.5332h-2c0,1.2861-.3193,2.5708-.877,3.5254-.7344,1.2603-1.123,2.8071-1.123,4.4746,0,3.5203,2.6125,6.4414,6,6.9282ZM11.293,8.8369c.9814.981,2.2764,1.4688,3.5879,1.4688.5675,0,1.1381-.0919,1.6875-.2745-.7802,1.7476-2.5343,2.9688-4.5684,2.9688-2.6097,0-4.7587-2.0102-4.9807-4.5633,1.2437-.9394,3.0793-.7947,4.2737.4002ZM16.575,21l.425,2H7.425l-.425-2h9.575Z" style="fill:#2a2623;"/></svg>