<?xml version="1.0" encoding="UTF-8"?><svg id="Icon" xmlns="http://www.w3.org/2000/svg" viewBox="0 0 24 32"><path d="M13,32V14.828c1.1639-.4128,2-1.5243,2-2.828,0-1.6543-1.3457-3-3-3s-3,1.3457-3,3c0,1.3037.8361,2.4152,2,2.828v16.747l2,.425ZM12,11c.5518,0,1,.4482,1,1s-.4482,1-1,1-1-.4482-1-1,.4482-1,1-1ZM11,7.575V0l2,.425v7.575l-2-.425ZM2.1074,18.8662l-.0002-.0003-.6318-1.9442,6.5598-3.788.0005.0008.6318,1.944-6.56,3.7877ZM22.8926,17.1338l-.0009.0015-1.3671,1.5185-6.5598-3.7876.0005-.0008,1.3671-1.5186,6.5601,3.7869Z" style="fill:#2a2623; stroke-width:0px;"/></svg>