<svg width="24" height="24" viewBox="0 0 24 24" fill="none" xmlns="http://www.w3.org/2000/svg">
<path fill-rule="evenodd" clip-rule="evenodd" d="M5 12C5 8.13401 8.13401 5 12 5C12.9301 5 13.8155 5.18088 14.6248 5.50845L15.5517 5.88367L16.3022 4.02979L15.3752 3.65458C14.3316 3.23213 13.1917 3 12 3C7.02944 3 3 7.02944 3 12C3 14.8284 4.30475 17.3508 6.34293 19H4H3V21H4H9H10V20V15V14H8V15V17.7455C6.18526 16.4797 5 14.3776 5 12ZM17.5609 7.63396C17.8371 8.11225 18.4487 8.27612 18.9269 7.99998C19.4052 7.72384 19.5691 7.11225 19.293 6.63396C19.0168 6.15566 18.4052 5.99179 17.9269 6.26793C17.4487 6.54407 17.2848 7.15566 17.5609 7.63396ZM21 11C21 10.4477 20.5523 9.99999 20 9.99999C19.4477 9.99999 19 10.4477 19 11C19 11.5523 19.4477 12 20 12C20.5523 12 21 11.5523 21 11ZM13 21C13.5523 21 14 20.5523 14 20C14 19.4477 13.5523 19 13 19C12.4477 19 12 19.4477 12 20C12 20.5523 12.4477 21 13 21ZM20.2955 15.634C20.5716 15.1557 20.4078 14.5441 19.9295 14.2679C19.4512 13.9918 18.8396 14.1557 18.5634 14.634C18.2873 15.1123 18.4512 15.7238 18.9295 16C19.4078 16.2761 20.0193 16.1123 20.2955 15.634ZM17.3676 19.2942C17.8459 19.0181 18.0098 18.4065 17.7336 17.9282C17.4575 17.4499 16.8459 17.286 16.3676 17.5621C15.8893 17.8383 15.7254 18.4499 16.0016 18.9282C16.2777 19.4065 16.8893 19.5703 17.3676 19.2942Z" fill="#2A2623"/>
</svg>
