<svg width="24" height="24" viewBox="0 0 24 24" fill="none" xmlns="http://www.w3.org/2000/svg">
<path d="M9.49845 1.61525L8.61384 1.14893L7.68118 2.91815L8.56579 3.38448C9.3655 3.80605 9.90584 4.29828 10.2776 4.87375C10.4001 5.06344 10.5084 5.26852 10.6026 5.49152C9.70158 5.27988 8.86144 5.22472 8.0848 5.3202C6.80048 5.4781 5.75034 6.0416 4.95026 6.87589C3.38685 8.50616 2.86455 11.0591 3.02893 13.4555C3.19452 15.8696 4.07135 18.3933 5.63497 20.0748C6.42662 20.9261 7.414 21.5803 8.58518 21.857C9.64772 22.1081 10.797 22.033 11.9988 21.595C13.2008 22.033 14.3504 22.108 15.4131 21.857C16.5845 21.5803 17.5721 20.9262 18.3639 20.0749C19.928 18.3934 20.805 15.8697 20.9707 13.4555C21.1351 11.0591 20.6127 8.50608 19.0489 6.87581C18.2487 6.04154 17.1984 5.47809 15.9139 5.3202C14.9588 5.20281 13.9076 5.31316 12.7652 5.66211C12.5883 4.98578 12.3266 4.35978 11.9575 3.78849C11.3711 2.88074 10.5519 2.1706 9.49845 1.61525Z" fill="#2A2623"/>
</svg>
