<svg width="24" height="24" viewBox="0 0 24 24" fill="none" xmlns="http://www.w3.org/2000/svg">
<path fill-rule="evenodd" clip-rule="evenodd" d="M22 12C22 17.5228 17.5228 22 12 22C6.47715 22 2 17.5228 2 12C2 6.47715 6.47715 2 12 2C17.5228 2 22 6.47715 22 12ZM13.5 8C13.5 8.82843 12.8284 9.5 12 9.5C11.1716 9.5 10.5 8.82843 10.5 8C10.5 7.17157 11.1716 6.5 12 6.5C12.8284 6.5 13.5 7.17157 13.5 8ZM16.1287 11.6045L15.8564 9.62309C15.7187 9.64201 15.5808 9.66124 15.4428 9.68048C14.3018 9.8396 13.1523 9.99989 12.0015 9.99989C10.8508 9.99989 9.70143 9.83956 8.56055 9.68041C8.42268 9.66118 8.28493 9.64196 8.14732 9.62305L7.875 11.6044C8.90318 11.7457 9.9287 11.8863 10.9652 11.9584C10.9137 12.4847 10.8081 12.9428 10.6443 13.3625C10.3911 14.0113 9.97579 14.6271 9.30289 15.2847L8.58773 15.9837L9.98563 17.414L10.7008 16.7151C11.2489 16.1794 11.6948 15.6297 12.043 15.0417C12.3588 15.6028 12.7627 16.1476 13.277 16.6888L13.9659 17.4136L15.4156 16.0359L14.7267 15.311C13.7499 14.2831 13.2963 13.2741 13.1003 11.954C14.1159 11.8806 15.1209 11.7429 16.1287 11.6045Z" fill="#2A2623"/>
</svg>
