<svg width="24" height="24" viewBox="0 0 24 24" fill="none" xmlns="http://www.w3.org/2000/svg">
<path fill-rule="evenodd" clip-rule="evenodd" d="M12 1.71924L14.6697 3.85497L18 2.52283V7.99986C18 10.9729 15.8377 13.4408 13 13.9169V15.6071C14.0923 14.6088 15.5465 13.9999 17.1429 13.9999C17.4651 13.9999 17.7823 14.0248 18.0923 14.0729L18.8147 14.1852L18.9269 14.9076C18.9751 15.2176 19 15.5347 19 15.857C19 19.2496 16.2497 21.9999 12.8571 21.9999C12.5668 21.9999 12.2806 21.9797 12 21.9404C11.7194 21.9797 11.4332 21.9999 11.1429 21.9999C7.75025 21.9999 5 19.2496 5 15.857C5 15.5347 5.02491 15.2176 5.07307 14.9076L5.1853 14.1852L5.9077 14.0729C6.21771 14.0248 6.53486 13.9999 6.85714 13.9999C8.45353 13.9999 9.90769 14.6088 11 15.6071V13.9169C8.16229 13.4408 6 10.9729 6 7.99986V2.52283L9.33034 3.85497L12 1.71924ZM16.9975 16.0024C16.9226 18.1749 15.175 19.9225 13.0025 19.9974C13.0774 17.8249 14.825 16.0773 16.9975 16.0024ZM7.0025 16.0024C7.07742 18.1749 8.82503 19.9225 10.9975 19.9974C10.9226 17.8249 9.17498 16.0773 7.0025 16.0024Z" fill="#2A2623"/>
</svg>
