<svg width="24" height="24" viewBox="0 0 24 24" fill="none" xmlns="http://www.w3.org/2000/svg">
<path fill-rule="evenodd" clip-rule="evenodd" d="M8.85498 4.58067L10.5754 2H13.4246L15.145 4.58067L17.9478 3.93388L20.0661 6.05225L19.4193 8.85498L22 10.5754V13.4246L19.4193 15.145L20.0661 17.9478L17.9478 20.0661L15.145 19.4193L13.4246 22H10.5754L8.85498 19.4193L6.05225 20.0661L3.93388 17.9478L4.58067 15.145L2 13.4246V10.5754L4.58067 8.85498L3.93388 6.05225L6.05225 3.93388L8.85498 4.58067ZM8.5 12C8.5 10.067 10.067 8.5 12 8.5C13.933 8.5 15.5 10.067 15.5 12C15.5 13.933 13.933 15.5 12 15.5C10.067 15.5 8.5 13.933 8.5 12Z" fill="#2A2623"/>
</svg>
