<svg width="24" height="24" viewBox="0 0 24 24" fill="none" xmlns="http://www.w3.org/2000/svg">
<path fill-rule="evenodd" clip-rule="evenodd" d="M5.00029 7.5723V7H7.00029C7.00029 4.23858 9.23886 2 12.0003 2C14.7617 2 17.0003 4.23858 17.0003 7H19.0003V7.5723L21.3483 6.71846L22.0318 8.59805L19.0003 9.70043V12H22.0003V14H19.0003V15C19.0003 15.4297 18.9616 15.8503 18.8875 16.2585L22.0318 17.402L21.3483 19.2815L18.2506 18.1551C17.2403 20.1526 15.3005 21.6002 13 21.9292V12H11V21.9291C8.6997 21.5999 6.7602 20.1525 5.74996 18.1551L2.65224 19.2815L1.96875 17.402L5.11312 16.2585C5.039 15.8503 5.00029 15.4297 5.00029 15V14H2.00029V12H5.00029V9.70043L1.96875 8.59805L2.65224 6.71846L5.00029 7.5723ZM12.0003 4C10.3434 4 9.00029 5.34315 9.00029 7H15.0003C15.0003 5.34315 13.6571 4 12.0003 4Z" fill="#2A2623"/>
</svg>
