<svg width="24" height="24" viewBox="0 0 24 24" fill="none" xmlns="http://www.w3.org/2000/svg">
<path fill-rule="evenodd" clip-rule="evenodd" d="M16.7144 5.08731C15.7899 4.1433 14.8686 3.41 14.1788 2.91244C13.5368 2.44938 12.8874 2.06975 12.204 1.6792L8.86429 6.45018L7.5 5.08589L6.79289 5.793C4.60864 7.97726 3.5 11.0052 3.5 13.2953C3.5 18.0772 7.28035 22.0001 12 22.0001C16.7197 22.0001 20.5 18.0772 20.5 13.2953C20.5 9.76802 18.5437 6.95515 16.7144 5.08731ZM12 20.0001C13.4497 20.0001 14.625 18.6586 14.625 17.0038C14.625 14.5556 12 13.0001 12 13.0001C12 13.0001 9.375 14.5556 9.375 17.0038C9.375 18.6586 10.5503 20.0001 12 20.0001Z" fill="#2A2623"/>
</svg>
