<svg width="24" height="24" viewBox="0 0 24 24" fill="none" xmlns="http://www.w3.org/2000/svg">
<path fill-rule="evenodd" clip-rule="evenodd" d="M18.4041 13.4461L19.5 14.542L23.4142 10.6278L13.5147 0.728271L9.6005 4.64247L10.7711 5.81303L3.49101 9.1676L2.04785 20.6806L8.06766 14.6608C8.02347 14.4955 7.99991 14.3219 7.99991 14.1427C7.99991 13.0381 8.89534 12.1427 9.99991 12.1427C11.1045 12.1427 11.9999 13.0381 11.9999 14.1427C11.9999 15.2473 11.1045 16.1427 9.99991 16.1427C9.82076 16.1427 9.64711 16.1191 9.4819 16.0749L3.35422 22.2026L14.9843 20.6627L18.4041 13.4461ZM20.5858 10.6278L19.5 11.7135L12.4289 4.64247L13.5147 3.5567L20.5858 10.6278Z" fill="#2A2623"/>
</svg>
