<svg width="24" height="24" viewBox="0 0 24 24" fill="none" xmlns="http://www.w3.org/2000/svg">
<path d="M14.9977 19.9297C14.6402 14.8568 11.4709 12 8.00022 12C4.52954 12 1.36029 14.8568 1.00269 19.9297L0.927246 21H15.0732L14.9977 19.9297Z" fill="#2A2623"/>
<path d="M17.0076 20L16.9927 19.789C16.7888 16.896 15.7571 14.479 14.1955 12.7705C15.0512 12.264 16.0113 12 17.0029 12C20.0685 12 22.8327 14.5235 23.1433 18.9297L23.2188 20H17.0076Z" fill="#2A2623"/>
<path d="M8 3C5.79086 3 4 4.79086 4 7C4 9.20914 5.79086 11 8 11C10.2091 11 12 9.20914 12 7C12 4.79086 10.2091 3 8 3Z" fill="#2A2623"/>
<path d="M17 4C15.067 4 13.5 5.567 13.5 7.5C13.5 9.433 15.067 11 17 11C18.933 11 20.5 9.433 20.5 7.5C20.5 5.567 18.933 4 17 4Z" fill="#2A2623"/>
</svg>
