<svg width="24" height="24" viewBox="0 0 24 24" fill="none" xmlns="http://www.w3.org/2000/svg">
<path fill-rule="evenodd" clip-rule="evenodd" d="M13.0577 2C12.4417 2 11.9423 2.49746 11.9423 3.11111V10.8889H10.8269V4.22222C10.8269 3.60857 10.3275 3.11111 9.71154 3.11111C9.09553 3.11111 8.59615 3.60857 8.59615 4.22222V12H7.48077V6.44444C7.48077 5.8308 6.98139 5.33333 6.36538 5.33333C5.74937 5.33333 5.25 5.8308 5.25 6.44444V14.7778C5.25 18.7665 8.49594 22 12.5 22C16.5041 22 19.75 18.7665 19.75 14.7778V8.11111C19.2412 8.11111 18.7658 8.24637 18.3562 8.48239C17.5212 8.96352 16.9615 9.86142 16.9615 10.8889V12.9317L16.4115 13.1508C15.0596 13.6896 14.1731 14.9939 14.1731 16.4444V17H13.0577V16.4444C13.0577 14.5942 14.1561 12.925 15.8462 12.1825V10.8889C15.8462 9.56668 16.5088 8.3992 17.5192 7.69713V4.22222C17.5192 3.60857 17.0199 3.11111 16.4038 3.11111C15.7878 3.11111 15.2885 3.60857 15.2885 4.22222V10.8889H14.1731V3.11111C14.1731 2.49746 13.6737 2 13.0577 2Z" fill="#2A2623"/>
</svg>
