<svg width="24" height="24" viewBox="0 0 24 24" fill="none" xmlns="http://www.w3.org/2000/svg">
<path d="M12 2C9.23856 2 6.99999 4.23858 6.99999 7V11C6.99999 13.7614 9.23856 16 12 16C14.7614 16 17 13.7614 17 11V7C17 4.23858 14.7614 2 12 2Z" fill="#2A2623"/>
<path d="M5.85317 14.4556L5.3088 13.6168L3.6311 14.7055L4.17547 15.5444C5.2991 17.2758 7.44645 19.5784 11 19.9488V22H13V19.9488C16.5535 19.5784 18.7009 17.2758 19.8245 15.5444L20.3689 14.7055L18.6912 13.6168L18.1468 14.4556C17.1072 16.0576 15.2001 18 12 18C8.79988 18 6.89278 16.0576 5.85317 14.4556Z" fill="#2A2623"/>
</svg>
