<svg width="24" height="24" viewBox="0 0 24 24" fill="none" xmlns="http://www.w3.org/2000/svg">
<path d="M20.998 1.65625L8.99805 5.25625V15.4716C8.39077 15.1671 7.69806 15.0003 6.99805 15.0003C4.96737 15.0003 2.99805 16.4043 2.99805 18.5003C2.99805 20.5962 4.96737 22.0003 6.99805 22.0003C9.02873 22.0003 10.998 20.5962 10.998 18.5003V6.74431L18.998 4.34431V12.4716C18.3908 12.1671 17.6981 12.0003 16.998 12.0003C14.9674 12.0003 12.998 13.4043 12.998 15.5003C12.998 17.5962 14.9674 19.0003 16.998 19.0003C19.0287 19.0003 20.998 17.5962 20.998 15.5003V1.65625Z" fill="#2A2623"/>
</svg>
