<svg width="24" height="24" viewBox="0 0 24 24" fill="none" xmlns="http://www.w3.org/2000/svg">
<path fill-rule="evenodd" clip-rule="evenodd" d="M5.01997 3.5H7V10.5H5V6.00373L3.79167 6.89878L2.60121 5.29167L5.01997 3.5ZM11 6H21V8H11V6ZM5.61095 15.5C5.20263 15.5 4.72706 15.7573 4.28156 16.194L2.88152 14.7657C3.47423 14.1847 4.43007 13.5 5.61095 13.5C7.0343 13.5 7.99993 14.6036 7.99993 15.889C7.99993 16.6543 7.66864 17.2421 7.26711 17.6785C6.96107 18.0111 6.58928 18.2821 6.26481 18.5H8.24993V20.5H2.99993V19.5C2.99993 18.7457 3.39195 18.2011 3.77849 17.8324C4.106 17.52 4.52069 17.2506 4.84672 17.0388C4.88325 17.0151 4.91868 16.9921 4.95274 16.9698C5.33743 16.7183 5.61011 16.5256 5.79526 16.3244C5.95622 16.1494 5.99993 16.0234 5.99993 15.889C5.99993 15.7468 5.95073 15.6538 5.89995 15.6012C5.85435 15.5539 5.77083 15.5 5.61095 15.5ZM11 16H21V18H11V16Z" fill="#2A2623"/>
</svg>
