<svg width="24" height="24" viewBox="0 0 24 24" fill="none" xmlns="http://www.w3.org/2000/svg">
<path fill-rule="evenodd" clip-rule="evenodd" d="M13 4V2H11V4H2.5V8H1.5V12H2.5V16C2.5 18.2091 4.29086 20 6.5 20H17.5C19.7091 20 21.5 18.2091 21.5 16V12H22.5V8H21.5V4H13ZM8.5 8.5C7.67157 8.5 7 9.17157 7 10C7 10.8284 7.67157 11.5 8.5 11.5C9.32843 11.5 10 10.8284 10 10C10 9.17157 9.32843 8.5 8.5 8.5ZM15.5 8.5C14.6716 8.5 14 9.17157 14 10C14 10.8284 14.6716 11.5 15.5 11.5C16.3284 11.5 17 10.8284 17 10C17 9.17157 16.3284 8.5 15.5 8.5ZM15 14H9V16H15V14Z" fill="#2A2623"/>
</svg>
