<svg width="24" height="24" viewBox="0 0 24 24" fill="none" xmlns="http://www.w3.org/2000/svg">
<path fill-rule="evenodd" clip-rule="evenodd" d="M9.5 1.58594L12 4.08594L14.5 1.58594L15.9142 3.00015L13 5.91436V10.2688L16.7717 8.09121L17.8384 4.11032L19.7702 4.62796L18.8552 8.04302L22.2702 8.95808L21.7526 10.8899L17.7717 9.82326L14.0006 12.0005L17.7704 14.177L21.7513 13.1103L22.269 15.0422L18.8539 15.9573L19.769 19.3723L17.8371 19.89L16.7704 15.9091L13 13.7322V18.0859L15.9142 21.0002L14.5 22.4144L12 19.9144L9.5 22.4144L8.08579 21.0002L11 18.0859V13.7329L7.23081 15.909L6.16414 19.8899L4.23229 19.3723L5.14735 15.9572L1.73229 15.0422L2.24992 13.1103L6.23081 14.177L10.0006 12.0005L6.22955 9.82328L2.24866 10.89L1.73103 8.95811L5.14609 8.04305L4.23103 4.62798L6.16288 4.11034L7.22955 8.09123L11 10.2681V5.91436L8.08579 3.00015L9.5 1.58594Z" fill="#2A2623"/>
</svg>
