<svg width="24" height="24" viewBox="0 0 24 24" fill="none" xmlns="http://www.w3.org/2000/svg">
<path fill-rule="evenodd" clip-rule="evenodd" d="M4.5 3H5.5C7.24328 3 8.45581 3.58785 9.24068 4.22236C9.57867 4.4956 9.83005 4.7713 10.0085 5.00004H14C17.8663 5.00004 21 8.13371 21 12C21 12.6815 20.9021 13.3393 20.72 13.9609C20.8082 13.9864 20.9017 14 20.999 14C21.5512 14 21.999 13.5523 21.999 13C21.999 12.8162 21.9503 12.6468 21.8658 12.5008L21.3651 11.6352L23.0963 10.6337L23.597 11.4993C23.8528 11.9416 23.999 12.4553 23.999 13C23.999 14.6569 22.6558 16 20.999 16C20.6053 16 20.2284 15.9238 19.8831 15.7853C19.6258 16.1829 19.3295 16.5527 19 16.8893V21H13V19H11V21H5V17.5509C4.37079 17.1192 3.88101 16.6316 3.44811 16H1V8.93505H3.32378C3.60965 8.28652 3.98098 7.64375 4.5 7.08356V3ZM8.25 12C8.94036 12 9.5 11.4404 9.5 10.75C9.5 10.0597 8.94036 9.50005 8.25 9.50005C7.55964 9.50005 7 10.0597 7 10.75C7 11.4404 7.55964 12 8.25 12Z" fill="#2A2623"/>
</svg>
