<svg width="24" height="24" viewBox="0 0 24 24" fill="none" xmlns="http://www.w3.org/2000/svg">
<path d="M11.3822 2.21346L12 1.72803L12.6178 2.21346L12.6206 2.21564L12.6259 2.21985L12.644 2.23424C12.6593 2.24647 12.6811 2.26397 12.7089 2.28655C12.7645 2.3317 12.8443 2.39725 12.9448 2.48183C13.1457 2.65094 13.4298 2.89657 13.7695 3.20794C14.4475 3.82945 15.3536 4.71908 16.2625 5.7903C18.0389 7.88394 20 10.8715 20 13.9998C20 18.4181 16.4183 21.9998 12 21.9998C7.58172 21.9998 4 18.4181 4 13.9998C4 10.8715 5.96107 7.88394 7.73749 5.7903C8.64641 4.71908 9.55251 3.82945 10.2305 3.20794C10.5702 2.89657 10.8543 2.65094 11.0552 2.48183C11.1557 2.39725 11.2355 2.3317 11.2911 2.28655C11.3189 2.26397 11.3407 2.24647 11.356 2.23424L11.3741 2.21985L11.3794 2.21564L11.3822 2.21346Z" fill="#2A2623"/>
</svg>
