<svg width="24" height="24" viewBox="0 0 24 24" fill="none" xmlns="http://www.w3.org/2000/svg">
<path d="M13 1V4.56609C12.6729 4.5225 12.3391 4.5 12 4.5C11.6609 4.5 11.3271 4.5225 11 4.56609V1H13Z" fill="#2A2623"/>
<path fill-rule="evenodd" clip-rule="evenodd" d="M11 4.56609C7.65778 5.01139 5.01139 7.65778 4.56609 11H1V13H4.56609C4.77708 14.5836 5.48221 16.011 6.52137 17.122C6.58737 17.1926 6.65472 17.2619 6.72337 17.3298C7.85511 18.4505 9.34192 19.2132 11 19.4342V23H13V19.4339C16.3422 18.9886 18.9889 16.3425 19.4342 13.0003L23 13V11H19.4342C19.2132 9.34192 18.4505 7.85511 17.3298 6.72337C17.2637 6.65653 17.1962 6.59093 17.1276 6.52661C16.0158 5.48458 14.5863 4.77743 13 4.56609V9H11.0003L11 4.56609ZM4.56609 11C4.5225 11.3271 4.5 11.6609 4.5 12C4.5 12.3391 4.5225 12.6729 4.56609 13H9V11.0003L4.56609 11ZM19.4342 11C19.4778 11.327 19.5 11.6611 19.5 12C19.5 12.3391 19.4778 12.6732 19.4342 13.0003L15.0003 13V11.0003L19.4342 11ZM13 15.0003V19.4339C12.6729 19.4775 12.3391 19.5 12 19.5C11.6611 19.5 11.327 19.4778 11 19.4342L11.0003 15.0003H13Z" fill="#2A2623"/>
</svg>
