<svg width="24" height="24" viewBox="0 0 24 24" fill="none" xmlns="http://www.w3.org/2000/svg">
<path d="M15.9433 2.23961C15.3092 2.08083 14.6566 2 14 2V10L22 10C22 9.32379 21.9143 8.65185 21.746 8L21.736 7.96176C21.6444 7.61406 21.5292 7.27218 21.391 6.93853C20.989 5.96793 20.3997 5.08602 19.6569 4.34315C18.914 3.60028 18.0321 3.011 17.0615 2.60896C16.7156 2.4657 16.3609 2.34721 16 2.25404L15.9433 2.23961Z" fill="#2A2623"/>
<path d="M20 13C20 17.9706 15.9706 22 11 22C6.02944 22 2 17.9706 2 13C2 8.36745 5.50005 4.55238 9.99999 4.05493C10.0266 4.05199 10.0532 4.04917 10.0798 4.04647C10.3824 4.01574 10.6893 4 11 4C11.338 4 11.6717 4.01863 12 4.05493V12H19.9451C19.9814 12.3283 20 12.662 20 13Z" fill="#2A2623"/>
</svg>
